<?xml version="1.0" encoding="UTF-8"?>
<svg xmlns="http://www.w3.org/2000/svg" version="1.1" viewBox="0 0 151.9 48.7">
  <defs>
    <style>
      .cls-1 {
        fill: #fff;
      }
    </style>
  </defs>
  <!-- Generator: Adobe Illustrator 28.7.1, SVG Export Plug-In . SVG Version: 1.2.0 Build 142)  -->
  <g>
    <g id="Layer_1">
      <g id="Layer_1-2" data-name="Layer_1">
        <g>
          <path class="cls-1" d="M35,18.6c-4.8,0-7.6-3.5-7.6-7.8s3.1-8.1,7.8-8.1,7.7,3.6,7.7,7.8-3.2,8.1-7.9,8.1h0ZM35.2,15.8c2.5,0,3.9-2.2,3.9-5.2s-1.4-5.2-3.9-5.2-3.9,2.3-3.9,5.2,1.5,5.2,3.9,5.2h0Z"/>
          <path class="cls-1" d="M45.3,2.9h9.8v2.9h-6.2v3.5h5.8v2.8h-5.8v6.2h-3.6V2.9h0Z"/>
          <path class="cls-1" d="M57.9,2.9h9.8v2.9h-6.2v3.5h5.8v2.8h-5.8v6.2h-3.6V2.9h0Z"/>
          <path class="cls-1" d="M80,11.8h-5.9v3.7h6.6v2.9h-10.3V2.9h9.9v2.9h-6.3v3.2h5.9v2.8Z"/>
          <path class="cls-1" d="M83.2,3.1c1.2-.2,2.9-.3,4.8-.3s4.1.3,5.2,1.2c1,.7,1.5,1.8,1.5,3.2s-1.5,3.3-2.8,3.8h0c1.1.5,1.7,1.5,2.2,2.9.5,1.7,1,3.8,1.3,4.4h-3.7c-.2-.4-.6-1.7-1.1-3.6-.4-1.9-1.2-2.5-2.6-2.5h-1.1v6.1h-3.6V3.1h0ZM86.8,9.8h1.5c1.8,0,2.9-.9,2.9-2.2s-1-2.1-2.7-2.1-1.4,0-1.6.1v4.2h0Z"/>
          <path class="cls-1" d="M100.5,5.9h-4.4v-2.9h12.4v2.9h-4.4v12.5h-3.6V5.9Z"/>
          <path class="cls-1" d="M120,11.8h-5.9v3.7h6.6v2.9h-10.3V2.9h9.9v2.9h-6.3v3.2h5.9v2.8Z"/>
          <path class="cls-1" d="M12.8,41.9l-1.1,4h-3.8l4.9-15.5h4.8l5,15.5h-3.9l-1.2-4h-4.6ZM16.9,39.3l-1-3.3c-.3-.9-.6-2.1-.8-3h0c-.2.9-.5,2.1-.7,3l-1,3.3h3.6,0Z"/>
          <path class="cls-1" d="M28.5,41.9l-1.1,4h-3.8l4.9-15.5h4.8l5,15.5h-3.9l-1.2-4h-4.6ZM32.6,39.3l-1-3.3c-.3-.9-.6-2.1-.8-3h0c-.2.9-.5,2.1-.7,3l-1,3.3h3.6,0Z"/>
          <path class="cls-1" d="M40.4,45.9v-15.5h4.2l3.3,5.7c1,1.6,1.9,3.6,2.6,5.3h0c-.2-2-.3-4.1-.3-6.5v-4.5h3.3v15.5h-3.8l-3.5-5.9c-1-1.7-2-3.6-2.8-5.5h-.1c.1,2,.1,4.2.1,6.8v4.6h-3.3,0Z"/>
          <path class="cls-1" d="M60.7,45.9l-5.2-15.5h4l2,6.5c.6,1.9,1,3.6,1.5,5.5h0c.4-1.9.9-3.7,1.5-5.5l2-6.6h3.9l-5.4,15.5h-4.2,0Z"/>
          <path class="cls-1" d="M72.1,30.7c1.2-.2,2.9-.3,4.8-.3s4.1.3,5.2,1.2c1,.7,1.5,1.8,1.5,3.2s-1.5,3.3-2.8,3.8h0c1.1.5,1.7,1.5,2.2,2.9.5,1.7,1,3.8,1.3,4.4h-3.7c-.2-.4-.6-1.7-1.1-3.6-.4-1.9-1.2-2.5-2.6-2.5h-1.1v6.1h-3.6v-15.2h0ZM75.7,37.3h1.5c1.8,0,2.9-.9,2.9-2.2s-1-2.1-2.7-2.1-1.4,0-1.6.1v4.2h0Z"/>
          <path class="cls-1" d="M90.2,41.9l-1.1,4h-3.8l4.9-15.5h4.8l5,15.5h-3.9l-1.2-4h-4.6ZM94.3,39.3l-1-3.3c-.3-.9-.6-2.1-.8-3h0c-.2.9-.5,2.1-.7,3l-1,3.3h3.6,0Z"/>
          <path class="cls-1" d="M115,45.2c-1.1.4-3.2.9-5.4.9s-5.1-.7-6.5-2c-1.5-1.3-2.3-3.4-2.3-5.7,0-5.1,3.9-8.1,9.2-8.1s3.7.4,4.5.7l-.8,2.8c-.9-.4-2-.7-3.7-.7-3,0-5.4,1.6-5.4,5s2.1,5.1,5.1,5.1,1.5,0,1.8-.2v-3.3h-2.5v-2.7h6v8.1h0Z"/>
          <path class="cls-1" d="M127.4,39.3h-5.9v3.7h6.6v2.9h-10.3v-15.5h9.9v2.9h-6.3v3.2h5.9v2.8h0Z"/>
          <path class="cls-1" d="M130.6,45.9v-15.5h4.2l3.3,5.7c1,1.6,1.9,3.6,2.6,5.3h0c-.2-2-.3-4.1-.3-6.5v-4.5h3.3v15.5h-3.8l-3.5-5.9c-1-1.7-2-3.6-2.8-5.5h-.1c.1,2,.1,4.2.1,6.8v4.6h-3.3,0Z"/>
        </g>
      </g>
    </g>
  </g>
</svg>