<svg id="Layer_1" data-name="Layer 1" xmlns="http://www.w3.org/2000/svg" xmlns:xlink="http://www.w3.org/1999/xlink" viewBox="0 0 39.53 47.11"><defs><style>.cls-1,.cls-4{fill:none;}.cls-2{clip-path:url(#clip-path);}.cls-3{fill:#fff;}.cls-4{stroke:#004161;stroke-miterlimit:10;}</style><clipPath id="clip-path" transform="translate(-4.52 -1.58)"><rect class="cls-1" x="3.87" y="0.92" width="40.84" height="48.42"/></clipPath></defs><g class="cls-2"><path class="cls-3" d="M33,32.24H18.3a7.3,7.3,0,0,1,7.07-7.51h.54A7.3,7.3,0,0,1,33,32.24m-7.34-16.3a4,4,0,0,1,3.9,4.14,3.91,3.91,0,1,1-7.8,0,4,4,0,0,1,3.9-4.14m16-13.86H11a1.93,1.93,0,0,0-1.87,2V9.33h2.55a2.16,2.16,0,0,1,2.09,2.21,2.17,2.17,0,0,1-2.09,2.23H9.13v9.14h2.55a2.22,2.22,0,0,1,0,4.44H9.13V36.5h2.55a2.22,2.22,0,0,1,0,4.44H9.13V46.2a1.93,1.93,0,0,0,1.87,2H41.69a1.93,1.93,0,0,0,1.87-2V4.06a1.93,1.93,0,0,0-1.87-2" transform="translate(-4.52 -1.58)"/><path class="cls-4" d="M33,32.24H18.3a7.3,7.3,0,0,1,7.07-7.51h.54A7.3,7.3,0,0,1,33,32.24Zm-7.34-16.3a4,4,0,0,1,3.9,4.14,3.91,3.91,0,1,1-7.8,0A4,4,0,0,1,25.64,15.94Zm16-13.86H11a1.93,1.93,0,0,0-1.87,2V9.33h2.55a2.16,2.16,0,0,1,2.09,2.21,2.17,2.17,0,0,1-2.09,2.23H9.13v9.14h2.55a2.22,2.22,0,0,1,0,4.44H9.13V36.5h2.55a2.22,2.22,0,0,1,0,4.44H9.13V46.2a1.93,1.93,0,0,0,1.87,2H41.69a1.93,1.93,0,0,0,1.87-2V4.06A1.93,1.93,0,0,0,41.69,2.08Z" transform="translate(-4.52 -1.58)"/><path class="cls-3" d="M6.58,13.2h5.1a1.65,1.65,0,0,0,0-3.3H6.58a1.65,1.65,0,0,0,0,3.3" transform="translate(-4.52 -1.58)"/><path class="cls-4" d="M6.58,13.2h5.1a1.65,1.65,0,0,0,0-3.3H6.58a1.65,1.65,0,0,0,0,3.3Z" transform="translate(-4.52 -1.58)"/><path class="cls-3" d="M6.58,26.79h5.1a1.66,1.66,0,0,0,0-3.31H6.58a1.66,1.66,0,0,0,0,3.31" transform="translate(-4.52 -1.58)"/><path class="cls-4" d="M6.58,26.79h5.1a1.66,1.66,0,0,0,0-3.31H6.58a1.66,1.66,0,0,0,0,3.31Z" transform="translate(-4.52 -1.58)"/><path class="cls-3" d="M11.68,40.37a1.65,1.65,0,0,0,0-3.3H6.58a1.65,1.65,0,0,0,0,3.3h5.1Z" transform="translate(-4.52 -1.58)"/><path class="cls-4" d="M11.68,40.37a1.65,1.65,0,0,0,0-3.3H6.58a1.65,1.65,0,0,0,0,3.3h5.1Z" transform="translate(-4.52 -1.58)"/></g></svg>