<svg id="Layer_1" data-name="Layer 1" xmlns="http://www.w3.org/2000/svg" xmlns:xlink="http://www.w3.org/1999/xlink" viewBox="0 0 40.37 48.57"><defs><style>.cls-1,.cls-3{fill:none;}.cls-2{clip-path:url(#clip-path);}.cls-3{stroke:#fff;stroke-miterlimit:10;}</style><clipPath id="clip-path" transform="translate(0 0)"><rect class="cls-1" x="-0.69" y="-0.69" width="41.75" height="50"/></clipPath></defs><g class="cls-2"><path class="cls-3" d="M29,31.64H13.79a7.54,7.54,0,0,1,7.3-7.75h.55A7.54,7.54,0,0,1,29,31.64ZM21.37,14.82a4.16,4.16,0,0,1,4,4.27,4.16,4.16,0,0,1-4,4.27,4.16,4.16,0,0,1-4-4.27A4.16,4.16,0,0,1,21.37,14.82ZM37.94.5H6.25A2,2,0,0,0,4.31,2.55V8H7a2.29,2.29,0,0,1,0,4.58H4.31V22H7A2.29,2.29,0,0,1,7,26.6H4.31v9.45H7a2.29,2.29,0,0,1,0,4.58H4.31v5.44a2,2,0,0,0,1.93,2h31.7a2,2,0,0,0,1.93-2V2.55A2,2,0,0,0,37.94.5Z" transform="translate(0 0)"/><path class="cls-3" d="M2.23,12.58H7.49c.89,0,1.61-1,1.61-2.3S8.38,8,7.49,8H2.23C1.34,8,.62,9,.62,10.28S1.31,12.58,2.23,12.58Z" transform="translate(0 0)"/><path class="cls-3" d="M2.23,26.58H7.49c.89,0,1.61-1,1.61-2.3S8.38,22,7.49,22H2.23c-.89,0-1.61,1-1.61,2.29S1.31,26.58,2.23,26.58Z" transform="translate(0 0)"/><path class="cls-3" d="M2.11,40.65H7.37c.89,0,1.61-1,1.61-2.27s-.67-2.27-1.61-2.27H2.11c-.89,0-1.61,1-1.61,2.27S1.22,40.65,2.11,40.65Z" transform="translate(0 0)"/></g></svg>