<svg id="Layer_1" data-name="Layer 1" xmlns="http://www.w3.org/2000/svg" xmlns:xlink="http://www.w3.org/1999/xlink" viewBox="0 0 151.86 48.66"><defs><style>.cls-1,.cls-2,.cls-4,.cls-6{fill:none;}.cls-2,.cls-4,.cls-6{stroke:#004161;}.cls-2,.cls-6{stroke-width:0.66px;}.cls-3{clip-path:url(#clip-path);}.cls-4{stroke-width:0.59px;}.cls-5{fill:#004161;}.cls-6{stroke-linecap:round;stroke-linejoin:round;}</style><clipPath id="clip-path" transform="translate(-0.48 -0.52)"><rect class="cls-1" x="0.32" y="0.35" width="152.19" height="49.01"/></clipPath></defs><polygon class="cls-2" points="56.36 6.05 84.19 7.57 83.68 39.45 56.36 44 56.36 6.05"/><g class="cls-3"><path class="cls-2" d="M52.28,4a2,2,0,0,1,2-2c2,0,32.89,2.53,32.89,2.53s.5,0,.5,1.52v34.4A1.39,1.39,0,0,1,87.2,42a6.67,6.67,0,0,1-3,1c-4.62.66-29.34,5.57-29.34,5.57s-3,1.52-3-2.53S52.28,4,52.28,4Z" transform="translate(-0.48 -0.52)"/></g><line class="cls-2" x1="56.87" y1="2" x2="56.87" y2="6.05"/><g class="cls-3"><line class="cls-2" x1="56.61" y1="43.75" x2="56.61" y2="47.8"/></g><line class="cls-2" x1="62.18" y1="2.26" x2="62.18" y2="6.31"/><line class="cls-2" x1="67.24" y1="2.51" x2="67.24" y2="6.56"/><line class="cls-2" x1="71.79" y1="2.76" x2="71.79" y2="6.81"/><line class="cls-2" x1="75.84" y1="3.02" x2="75.84" y2="7.06"/><line class="cls-2" x1="75.59" y1="40.96" x2="75.59" y2="44"/><line class="cls-2" x1="70.78" y1="41.72" x2="70.78" y2="44.76"/><line class="cls-2" x1="66.73" y1="42.48" x2="66.73" y2="45.52"/><line class="cls-2" x1="61.67" y1="43.49" x2="61.67" y2="46.53"/><line class="cls-2" x1="79.89" y1="3.27" x2="79.89" y2="7.32"/><line class="cls-2" x1="79.89" y1="39.95" x2="79.89" y2="43.24"/><line class="cls-2" x1="83.94" y1="3.52" x2="83.94" y2="7.57"/><line class="cls-2" x1="83.43" y1="39.45" x2="83.43" y2="42.48"/><line class="cls-2" x1="51.33" y1="32.11" x2="56.39" y2="31.6"/><line class="cls-2" x1="51.33" y1="25.53" x2="56.39" y2="25.02"/><line class="cls-2" x1="51.84" y1="19.46" x2="56.33" y2="18.95"/><line class="cls-2" x1="51.84" y1="12.88" x2="56.33" y2="12.88"/><line class="cls-2" x1="51.81" y1="6.3" x2="56.3" y2="6.3"/><line class="cls-2" x1="51.33" y1="38.44" x2="56.34" y2="37.93"/><line class="cls-2" x1="51.33" y1="44.25" x2="56.36" y2="43.49"/><line class="cls-2" x1="83.22" y1="39.44" x2="87.69" y2="38.68"/><line class="cls-2" x1="83.73" y1="34.38" x2="87.68" y2="33.62"/><line class="cls-2" x1="83.73" y1="29.32" x2="87.68" y2="28.56"/><line class="cls-2" x1="83.73" y1="23.76" x2="87.68" y2="23"/><line class="cls-2" x1="83.73" y1="18.7" x2="87.68" y2="17.94"/><line class="cls-2" x1="83.73" y1="13.64" x2="87.68" y2="12.88"/><line class="cls-2" x1="84.25" y1="8.08" x2="87.16" y2="7.31"/><g class="cls-3"><path class="cls-4" d="M.77,37.23a8.33,8.33,0,1,0,8.32-8.78H8.54" transform="translate(-0.48 -0.52)"/><path class="cls-5" d="M1,36.89c.54-.7,2.86-.53,2.86-.53a5.11,5.11,0,0,0,2.83-1.69c1.52-1.44,1.14-4,1.14-4,0-.25,0-1.18,0-1.18a1.19,1.19,0,0,1,1.27-1.3s-.82-.12-1.8,1L3,34.58,1.11,36.67s-.53.67-.5,1.08A3.61,3.61,0,0,1,1,36.89" transform="translate(-0.48 -0.52)"/><path class="cls-2" d="M120.75,44.13c-9.27.21-16.27.66-17.09.66-1.57,0-3.28-.13-3.48-1.88S100,15.82,100,15.82s-.79-2.54,2.55-2,20.71,2.86,46.84-.07a2.1,2.1,0,0,1,2.23,2c.2,2.14.4,27.41.4,27.41s-.14,1.69-3.48,1.43c-5.12-.4-10.57-.58-15.83-.62" transform="translate(-0.48 -0.52)"/><path class="cls-2" d="M132.43,33.26a.75.75,0,0,0-.74-.75H120.23a.75.75,0,0,0-.74.75.74.74,0,0,0,.74.74V46a1.26,1.26,0,0,0,1.26,1.27h8.93A1.27,1.27,0,0,0,131.69,46V34A.74.74,0,0,0,132.43,33.26Z" transform="translate(-0.48 -0.52)"/><path class="cls-6" d="M30,6.64,27.67,9M43.22,38.13H23.06m3.34-4.71v4.71m13.47-4.71v4.71M25.7,4.11H40.58V30.17H25.7ZM22.51,31.62a1.79,1.79,0,0,0,1.77,1.8H42a1.79,1.79,0,0,0,1.77-1.8v-29A1.79,1.79,0,0,0,42,.85H24.28a1.79,1.79,0,0,0-1.77,1.81Z" transform="translate(-0.48 -0.52)"/></g><line class="cls-6" x1="32.89" y1="6.27" x2="27.27" y2="11.89"/></svg>