<svg id="Layer_1" data-name="Layer 1" xmlns="http://www.w3.org/2000/svg" xmlns:xlink="http://www.w3.org/1999/xlink" viewBox="0 0 151.87 48.66"><defs><style>.cls-1,.cls-2,.cls-4,.cls-6{fill:none;}.cls-2,.cls-4,.cls-6{stroke:#fff;}.cls-2,.cls-6{stroke-width:0.66px;}.cls-3{clip-path:url(#clip-path);}.cls-4{stroke-width:0.59px;}.cls-5{fill:#fff;}.cls-6{stroke-linecap:round;stroke-linejoin:round;}</style><clipPath id="clip-path" transform="translate(0 0)"><rect class="cls-1" x="-0.16" y="-0.17" width="152.19" height="49.01"/></clipPath></defs><polygon class="cls-2" points="56.37 6.05 84.19 7.57 83.69 39.45 56.37 44 56.37 6.05"/><g class="cls-3"><path class="cls-2" d="M51.8,3.48a2,2,0,0,1,2-2C55.8,1.48,86.69,4,86.69,4s.5,0,.5,1.52v34.4a1.4,1.4,0,0,1-.47,1.55,6.68,6.68,0,0,1-3,1c-4.62.66-29.34,5.57-29.34,5.57s-3,1.52-3-2.53S51.8,3.48,51.8,3.48Z" transform="translate(0 0)"/></g><line class="cls-2" x1="56.87" y1="2" x2="56.87" y2="6.05"/><g class="cls-3"><line class="cls-2" x1="56.61" y1="43.75" x2="56.61" y2="47.8"/></g><line class="cls-2" x1="62.18" y1="2.26" x2="62.18" y2="6.31"/><line class="cls-2" x1="67.24" y1="2.51" x2="67.24" y2="6.56"/><line class="cls-2" x1="71.79" y1="2.76" x2="71.79" y2="6.81"/><line class="cls-2" x1="75.84" y1="3.02" x2="75.84" y2="7.06"/><line class="cls-2" x1="75.59" y1="40.96" x2="75.59" y2="44"/><line class="cls-2" x1="70.78" y1="41.72" x2="70.78" y2="44.76"/><line class="cls-2" x1="66.73" y1="42.48" x2="66.73" y2="45.52"/><line class="cls-2" x1="61.67" y1="43.49" x2="61.67" y2="46.53"/><line class="cls-2" x1="79.89" y1="3.27" x2="79.89" y2="7.32"/><line class="cls-2" x1="79.89" y1="39.95" x2="79.89" y2="43.24"/><line class="cls-2" x1="83.94" y1="3.52" x2="83.94" y2="7.57"/><line class="cls-2" x1="83.43" y1="39.45" x2="83.43" y2="42.48"/><line class="cls-2" x1="51.33" y1="32.11" x2="56.39" y2="31.6"/><line class="cls-2" x1="51.33" y1="25.53" x2="56.39" y2="25.02"/><line class="cls-2" x1="51.84" y1="19.46" x2="56.33" y2="18.95"/><line class="cls-2" x1="51.84" y1="12.88" x2="56.33" y2="12.88"/><line class="cls-2" x1="51.81" y1="6.3" x2="56.3" y2="6.3"/><line class="cls-2" x1="51.33" y1="38.44" x2="56.34" y2="37.93"/><line class="cls-2" x1="51.33" y1="44.25" x2="56.36" y2="43.49"/><line class="cls-2" x1="83.22" y1="39.44" x2="87.69" y2="38.68"/><line class="cls-2" x1="83.73" y1="34.38" x2="87.68" y2="33.62"/><line class="cls-2" x1="83.73" y1="29.32" x2="87.68" y2="28.56"/><line class="cls-2" x1="83.73" y1="23.76" x2="87.68" y2="23"/><line class="cls-2" x1="83.73" y1="18.7" x2="87.68" y2="17.94"/><line class="cls-2" x1="83.73" y1="13.64" x2="87.68" y2="12.88"/><line class="cls-2" x1="84.25" y1="8.08" x2="87.16" y2="7.31"/><g class="cls-3"><path class="cls-4" d="M.29,36.71a8.33,8.33,0,1,0,8.32-8.78H8.06" transform="translate(0 0)"/><path class="cls-5" d="M.52,36.37c.54-.7,2.86-.53,2.86-.53a5.15,5.15,0,0,0,2.83-1.69c1.52-1.44,1.14-4,1.14-4V29a1.2,1.2,0,0,1,1.07-1.3h.2s-.82-.12-1.8,1l-4.3,5.39L.63,36.15s-.53.67-.5,1.08a3.5,3.5,0,0,1,.39-.86" transform="translate(0 0)"/><path class="cls-2" d="M120.27,43.61c-9.27.21-16.27.66-17.09.66-1.57,0-3.28-.13-3.48-1.88s-.18-27.09-.18-27.09-.79-2.54,2.55-2,20.71,2.86,46.84-.07a2.1,2.1,0,0,1,2.23,2v0c.2,2.14.4,27.41.4,27.41s-.14,1.69-3.48,1.43c-5.12-.4-10.57-.58-15.83-.62" transform="translate(0 0)"/><path class="cls-2" d="M132,32.74a.75.75,0,0,0-.74-.75H119.75a.75.75,0,0,0-.74.75.74.74,0,0,0,.74.74v12A1.25,1.25,0,0,0,121,46.75h8.94a1.27,1.27,0,0,0,1.27-1.27v-12A.74.74,0,0,0,132,32.74Z" transform="translate(0 0)"/><path class="cls-6" d="M29.52,6.12,27.19,8.48M42.74,37.61H22.58m3.34-4.71v4.71M39.39,32.9v4.71m-14.17-34H40.1V29.65H25.22ZM22,31.1a1.79,1.79,0,0,0,1.77,1.8H41.52a1.79,1.79,0,0,0,1.77-1.8V2.1A1.79,1.79,0,0,0,41.52.33H23.8A1.79,1.79,0,0,0,22,2.14h0Z" transform="translate(0 0)"/></g><line class="cls-6" x1="32.89" y1="6.27" x2="27.27" y2="11.89"/></svg>