<svg id="Layer_1" data-name="Layer 1" xmlns="http://www.w3.org/2000/svg" xmlns:xlink="http://www.w3.org/1999/xlink" viewBox="0 0 48.02 47.71"><defs><style>.cls-1,.cls-3,.cls-4{fill:none;}.cls-2{clip-path:url(#clip-path);}.cls-3,.cls-4{stroke:#004161;stroke-linecap:round;}.cls-3{stroke-miterlimit:10;}</style><clipPath id="clip-path" transform="translate(-1.18 -1.29)"><rect class="cls-1" x="0.44" y="0.27" width="49.5" height="49.46"/></clipPath></defs><g class="cls-2"><path class="cls-3" d="M20.52,23.56c-3.07-1.15-7.29-1.22-9.27.75L3.43,32.14c-2.93,2.93-2.11,8.65,2,12.67s9.67,4.9,12.6,1.9l7.9-7.83c2-1.9,1.63-5.78.4-8.85" transform="translate(-1.18 -1.29)"/><path class="cls-3" d="M30.45,25.8c3.06,1.14,6.73,1.6,8.64-.33l7.83-7.72C49.92,15,49,9.36,45,5.43S35.28.63,32.28,3.5l-7.76,7.65c-2,1.94-1.7,5.66-.54,8.66" transform="translate(-1.18 -1.29)"/></g><line class="cls-4" x1="17.19" y1="31.05" x2="31.41" y2="17.02"/></svg>