<svg id="Layer_1" data-name="Layer 1" xmlns="http://www.w3.org/2000/svg" xmlns:xlink="http://www.w3.org/1999/xlink" viewBox="0 0 49.48 49.07"><defs><style>.cls-1,.cls-3,.cls-4{fill:none;}.cls-2{clip-path:url(#clip-path);}.cls-3,.cls-4{stroke:#fff;stroke-linecap:round;}.cls-3{stroke-miterlimit:10;}</style><clipPath id="clip-path" transform="translate(0.04 0.02)"><rect class="cls-1" x="-3.44" y="-0.99" width="54.06" height="53"/></clipPath></defs><g class="cls-2"><path class="cls-3" d="M30.14,25.25c3.15,1.16,6.94,1.64,8.9-.35l8.07-8c3.09-2.88,2.18-8.64-2-12.69s-10-4.94-13.12-2L24,10.1c-2,2-1.75,5.83-.56,8.92m-3.56,3.87c-3.16-1.19-7.51-1.26-9.55.77L2.26,31.78c-3,3-2.18,8.91,2,13s10,5,13,2l8.14-8.07c2-2,1.68-6,.42-9.12" transform="translate(0.04 0.02)"/></g><line class="cls-4" x1="17.74" y1="32" x2="32.39" y2="17.54"/></svg>