<svg id="Layer_1" data-name="Layer 1" xmlns="http://www.w3.org/2000/svg" xmlns:xlink="http://www.w3.org/1999/xlink" viewBox="0 0 47.02 48.71"><defs><style>.cls-1,.cls-3,.cls-4{fill:none;}.cls-2{clip-path:url(#clip-path);}.cls-3,.cls-4{stroke:#004161;}.cls-3{stroke-width:0.8px;}.cls-5{fill:#fff;}</style><clipPath id="clip-path" transform="translate(-2.05 -0.5)"><rect class="cls-1" x="1.3" y="-3.59" width="48.48" height="53.59"/></clipPath></defs><g class="cls-2"><polygon class="cls-3" points="0.4 36.47 22.73 48.26 46.62 36.36 46.62 11.43 22.73 22.37 0.4 10.34 0.4 36.47"/><polyline class="cls-3" points="0.33 9.99 23.3 0.44 46.8 10.93"/><path class="cls-4" d="M1.44,37" transform="translate(-2.05 -0.5)"/><line class="cls-3" x1="22.73" y1="21.93" x2="22.73" y2="47.72"/></g><polygon class="cls-5" points="13.81 23.54 9.5 20.97 9.37 13.96 31.29 3.68 36.16 6.18 13.81 17.42 13.81 23.54"/><polygon class="cls-3" points="13.81 23.54 9.5 20.97 9.12 15.04 31.04 3.81 36.16 6.18 13.81 17.42 13.81 23.54"/></svg>