<svg id="Layer_1" data-name="Layer 1" xmlns="http://www.w3.org/2000/svg" xmlns:xlink="http://www.w3.org/1999/xlink" viewBox="0 0 76.22 49.6"><defs><style>.cls-1,.cls-3{fill:none;}.cls-2{clip-path:url(#clip-path);}.cls-3{stroke:#004161;}</style><clipPath id="clip-path" transform="translate(-0.2 -0.2)"><rect class="cls-1" width="76.62" height="50"/></clipPath></defs><g class="cls-2"><path class="cls-3" d="M29.79,44.83c-13.38.31-22.48,1-23.68,1-2.27,0-4.73-.19-5-2.74S.82,3.66.82,3.66-.32,0,4.5.83,34.4,5,72.14.73a3,3,0,0,1,3.22,2.93c.28,3.12.56,39.87.56,39.87s-.19,2.45-5,2.07c-7.4-.58-16.46-.79-24.06-.86" transform="translate(-0.2 -0.2)"/><path class="cls-3" d="M48,28.57a1.11,1.11,0,0,0-1.1-1.11H29.78a1.11,1.11,0,0,0,0,2.22V47.42a1.88,1.88,0,0,0,1.88,1.88H45a1.88,1.88,0,0,0,1.88-1.88V29.68A1.11,1.11,0,0,0,48,28.57Z" transform="translate(-0.2 -0.2)"/></g></svg>