<svg id="Layer_1" data-name="Layer 1" xmlns="http://www.w3.org/2000/svg" xmlns:xlink="http://www.w3.org/1999/xlink" viewBox="0 0 76.22 49.59"><defs><style>.cls-1,.cls-3{fill:none;}.cls-2{clip-path:url(#clip-path);}.cls-3{stroke:#fff;}</style><clipPath id="clip-path" transform="translate(0 -0.01)"><rect class="cls-1" x="-0.2" y="-0.2" width="76.62" height="50"/></clipPath></defs><g class="cls-2"><path class="cls-3" d="M29.59,44.63c-13.38.31-22.48,1-23.68,1-2.27,0-4.73-.19-5-2.74S.62,3.46.62,3.46-.52-.2,4.3.63,34.2,4.8,71.94.53A3,3,0,0,1,75.15,3.3a.86.86,0,0,1,0,.16c.28,3.12.56,39.87.56,39.87s-.19,2.45-5,2.07c-7.4-.58-16.46-.79-24.06-.86" transform="translate(0 -0.01)"/><path class="cls-3" d="M47.8,28.37a1.11,1.11,0,0,0-1.1-1.11H29.58a1.11,1.11,0,0,0,0,2.22V47.22a1.88,1.88,0,0,0,1.88,1.88H44.8a1.88,1.88,0,0,0,1.88-1.88h0V29.48a1.11,1.11,0,0,0,1.12-1.1Z" transform="translate(0 -0.01)"/></g></svg>