<svg id="Layer_1" data-name="Layer 1" xmlns="http://www.w3.org/2000/svg" xmlns:xlink="http://www.w3.org/1999/xlink" viewBox="0 0 28.75 49.68"><defs><style>.cls-1,.cls-3{fill:none;}.cls-2{clip-path:url(#clip-path);}.cls-3{stroke:#fff;stroke-linecap:round;stroke-linejoin:round;}</style><clipPath id="clip-path" transform="translate(0 0)"><rect class="cls-1" x="-0.16" y="-0.17" width="29.08" height="50"/></clipPath></defs><g class="cls-2"><path class="cls-3" d="M10.3,8.06,7.24,11.18m20.3,38H1.22M5.59,43v6.14M23.17,43v6.14M4.67,4.75H24.09v34H4.67ZM.5,40.65A2.36,2.36,0,0,0,2.82,43H25.94a2.34,2.34,0,0,0,2.31-2.37h0V2.83A2.33,2.33,0,0,0,25.94.5H2.82A2.34,2.34,0,0,0,.5,2.83Z" transform="translate(0 0)"/></g><line class="cls-3" x1="14.67" y1="8.26" x2="7.34" y2="15.59"/></svg>