<svg id="Layer_1" data-name="Layer 1" xmlns="http://www.w3.org/2000/svg" xmlns:xlink="http://www.w3.org/1999/xlink" viewBox="0 0 28.75 49.67"><defs><style>.cls-1,.cls-3{fill:none;}.cls-2{clip-path:url(#clip-path);}.cls-3{stroke:#004161;stroke-linecap:round;stroke-linejoin:round;}</style><clipPath id="clip-path" transform="translate(-1.33 -0.17)"><rect class="cls-1" x="1.17" width="29.08" height="50"/></clipPath></defs><g class="cls-2"><path class="cls-3" d="M11.63,8.23,8.57,11.35m20.3,38H2.55m4.37-6.14v6.14M24.5,43.19v6.14M6,4.92H25.42v34H6ZM1.83,40.82a2.35,2.35,0,0,0,2.32,2.37H27.27a2.34,2.34,0,0,0,2.31-2.37V3A2.33,2.33,0,0,0,27.27.67H4.15A2.34,2.34,0,0,0,1.83,3Z" transform="translate(-1.33 -0.17)"/></g><line class="cls-3" x1="14.67" y1="8.26" x2="7.34" y2="15.59"/></svg>