<svg id="Layer_1" data-name="Layer 1" xmlns="http://www.w3.org/2000/svg" xmlns:xlink="http://www.w3.org/1999/xlink" viewBox="0 0 9.21 7.34"><defs><style>.cls-1,.cls-3{fill:none;}.cls-2{clip-path:url(#clip-path);}.cls-3{stroke:#004161;stroke-linecap:round;stroke-linejoin:round;stroke-width:0.6px;}</style><clipPath id="clip-path" transform="translate(0 0)"><rect class="cls-1" width="9.21" height="7.34"/></clipPath></defs><g class="cls-2"><path class="cls-3" d="M7.8,6.42a.63.63,0,1,1-.63-.62A.63.63,0,0,1,7.8,6.42Zm-3.42,0A.61.61,0,0,1,3.76,7a.62.62,0,0,1-.62-.62.62.62,0,0,1,.62-.62A.62.62,0,0,1,4.38,6.42Zm-1-3H8.45M2.94,5H8l.91-3h-6m0,3L1.51.3H.3" transform="translate(0 0)"/></g></svg>