<svg id="Layer_1" data-name="Layer 1" xmlns="http://www.w3.org/2000/svg" xmlns:xlink="http://www.w3.org/1999/xlink" viewBox="0 0 35.25 46.35"><defs><style>.cls-1,.cls-3,.cls-4{fill:none;}.cls-2{clip-path:url(#clip-path);}.cls-3,.cls-4{stroke:#004161;stroke-miterlimit:10;}.cls-4{stroke-width:0.88px;}.cls-5{fill:#004161;}</style><clipPath id="clip-path" transform="translate(-7.82 -1.83)"><rect class="cls-1" x="7.24" y="1.25" width="36.4" height="47.51"/></clipPath></defs><g class="cls-2"><rect class="cls-3" x="0.5" y="0.5" width="34.25" height="45.35" rx="1.08"/><rect class="cls-4" x="4.24" y="4" width="26.77" height="38.34" rx="0.76"/><path class="cls-5" d="M34.31,11.16H16.57a.41.41,0,0,1,0-.82H34.31a.41.41,0,0,1,0,.82" transform="translate(-7.82 -1.83)"/><path class="cls-5" d="M34.31,16.74H16.57a.4.4,0,0,1-.4-.41.41.41,0,0,1,.4-.41H34.31a.41.41,0,0,1,.4.41.4.4,0,0,1-.4.41" transform="translate(-7.82 -1.83)"/><path class="cls-5" d="M34.31,22.32H16.57a.41.41,0,0,1,0-.81H34.31a.41.41,0,0,1,0,.81" transform="translate(-7.82 -1.83)"/><path class="cls-5" d="M30,28.08l.61-1.19a6,6,0,0,0-3.14-.84,4.45,4.45,0,0,0-3.29,1.26,6,6,0,0,0-1.58,3.49H21.22v1.11h1.3l0,.68V33l0,.36h-1.3v1.11h1.42a5.87,5.87,0,0,0,1.64,3.36A4.6,4.6,0,0,0,27.55,39a6.61,6.61,0,0,0,2.72-.55V37.11a6.57,6.57,0,0,1-2.65.56,3.22,3.22,0,0,1-2.33-.84,4.47,4.47,0,0,1-1.19-2.39h3.84V33.33H24V31.91h4.5V30.8H24.09c.45-2.31,1.58-3.46,3.41-3.46a5.66,5.66,0,0,1,2.53.74" transform="translate(-7.82 -1.83)"/></g></svg>