<svg id="Layer_1" data-name="Layer 1" xmlns="http://www.w3.org/2000/svg" xmlns:xlink="http://www.w3.org/1999/xlink" viewBox="0 0 48.32 45.95"><defs><style>.cls-1{fill:none;}.cls-2{clip-path:url(#clip-path);}.cls-3{fill:#fff;}.cls-4{fill:#ff8022;}</style><clipPath id="clip-path" transform="translate(0 0)"><rect class="cls-1" width="48.32" height="45.95"/></clipPath></defs><g class="cls-2"><path class="cls-3" d="M33.31,34.47a.52.52,0,0,0,.53.52.52.52,0,1,0,0-1,.52.52,0,0,0-.53.51m.95-.8V33.3c0-.38.47-.68.81-1a1.33,1.33,0,0,0,.45-1,1.24,1.24,0,0,0-.43-1A1.51,1.51,0,0,0,34,30a2,2,0,0,0-1.58.77l.56.63a1.31,1.31,0,0,1,1-.56.59.59,0,0,1,.63.58c0,.4-.42.67-.75,1a1.19,1.19,0,0,0-.41.89v.42Zm-5.17-.53a1,1,0,1,1,1.93,0,1,1,0,0,1-.28.71,1,1,0,0,1-1.37,0,1,1,0,0,1-.28-.71ZM31,31.82A1.4,1.4,0,0,0,30,31.35a1.74,1.74,0,0,0-1.77,1.79,1.78,1.78,0,0,0,.48,1.27,1.65,1.65,0,0,0,1.25.5A1.34,1.34,0,0,0,31,34.47v.17a1,1,0,0,1-1.08,1,2.1,2.1,0,0,1-1.22-.41l-.35.68a2.64,2.64,0,0,0,1.59.5,2,2,0,0,0,1.39-.49,1.7,1.7,0,0,0,.54-1.33V31.44H31Zm-4.31,1.35a1,1,0,0,1-.28.72,1,1,0,0,1-.7.29.91.91,0,0,1-.69-.29,1,1,0,0,1-.28-.72,1,1,0,0,1,.27-.71,1,1,0,0,1,1.4,0A1,1,0,0,1,26.72,33.17Zm0-1.32a1.44,1.44,0,0,0-1.11-.5,1.63,1.63,0,0,0-1.23.51,1.78,1.78,0,0,0-.49,1.3,1.83,1.83,0,0,0,.48,1.31A1.61,1.61,0,0,0,25.6,35a1.43,1.43,0,0,0,1.11-.48v.4h.85V31.44h-.85Zm-4.3,1.32a1,1,0,0,1-.28.72,1,1,0,0,1-.7.29.91.91,0,0,1-.69-.29,1,1,0,0,1-.28-.72,1,1,0,0,1,.27-.71,1,1,0,0,1,1.4,0A1,1,0,0,1,22.41,33.17Zm0-1.32a1.44,1.44,0,0,0-1.11-.5,1.65,1.65,0,0,0-1.24.51,2,2,0,0,0,0,2.61,1.61,1.61,0,0,0,1.24.52,1.43,1.43,0,0,0,1.11-.48v.4h.85V31.44H22.4Zm-4.32,3.06V33.26c0-.72.34-1,.85-1a1.32,1.32,0,0,1,.42.07l.07-.86a1.25,1.25,0,0,0-.42-.08,1,1,0,0,0-.95.56v-.46h-.87v3.47Zm-3.19-1.22L14,31.44H13l1.5,3.47h.69l1.51-3.47h-1Z" transform="translate(0 0)"/><path class="cls-3" d="M27.62,27.26V25.4a.8.8,0,0,1,.8-.88c.44,0,.74.3.74.86v1.88h.9V25.13a1.43,1.43,0,0,0-.4-1.07,1.39,1.39,0,0,0-1-.37,1.22,1.22,0,0,0-1.09.58v-.49h-.88v3.48Zm-3.25-2.82a.82.82,0,0,1,.86.73H23.47a.88.88,0,0,1,.9-.73m1.74,1a1.69,1.69,0,0,0-.49-1.27,1.73,1.73,0,0,0-1.25-.48,1.75,1.75,0,0,0-1.81,1.83,1.74,1.74,0,0,0,1.88,1.82A2.5,2.5,0,0,0,26,26.86l-.36-.63a2.18,2.18,0,0,1-1.12.35.93.93,0,0,1-1-.74h2.61c0-.14,0-.28,0-.4m-5.74-1a.83.83,0,0,1,.87.73H19.47a.89.89,0,0,1,.9-.73m1.74,1a1.65,1.65,0,0,0-.49-1.27,1.7,1.7,0,0,0-1.25-.48,1.75,1.75,0,0,0-1.3.52,1.78,1.78,0,0,0-.51,1.31,1.75,1.75,0,0,0,1.89,1.82A2.52,2.52,0,0,0,22,26.86l-.36-.63a2.21,2.21,0,0,1-1.12.35.94.94,0,0,1-1-.74h2.61a2.91,2.91,0,0,0,0-.4" transform="translate(0 0)"/><path class="cls-3" d="M32.73,16.79a.83.83,0,0,1,.87.72H31.83a.89.89,0,0,1,.9-.72m1.74,1A1.67,1.67,0,0,0,34,16.51a1.9,1.9,0,0,0-2.56,0,1.79,1.79,0,0,0-.5,1.3,1.74,1.74,0,0,0,1.89,1.82,2.52,2.52,0,0,0,1.52-.48L34,18.57a2.12,2.12,0,0,1-1.12.35.94.94,0,0,1-1-.74h2.61a2.77,2.77,0,0,0,0-.39M29,21.08a1.26,1.26,0,0,0,1.33-1.42V16.13h-.9v3.48c0,.45-.19.68-.58.68a1.51,1.51,0,0,1-.48-.1l-.16.72a1.43,1.43,0,0,0,.79.17m1.27-5.5a.56.56,0,0,0,0-.78.57.57,0,0,0-.79,0,.56.56,0,0,0,0,.78.57.57,0,0,0,.79,0m-6,2.28a1,1,0,0,1,.27-.7,1,1,0,0,1,1.38,0,1,1,0,0,1,.26.7,1,1,0,0,1-.26.72,1,1,0,0,1-1.38,0,1,1,0,0,1-.27-.72M25.29,16a1.38,1.38,0,0,0-1.06.49V14.76h-.9V19.6h.87v-.43a1.35,1.35,0,0,0,1.09.52,1.65,1.65,0,0,0,1.24-.52,2,2,0,0,0,0-2.6A1.66,1.66,0,0,0,25.29,16M21,16.79a.84.84,0,0,1,.87.72H20.07a.89.89,0,0,1,.9-.72m1.74,1a1.71,1.71,0,0,0-.49-1.28A1.76,1.76,0,0,0,21,16a1.75,1.75,0,0,0-1.81,1.82,1.74,1.74,0,0,0,1.89,1.82,2.49,2.49,0,0,0,1.51-.48l-.35-.63a2.12,2.12,0,0,1-1.13.35.94.94,0,0,1-1-.74h2.61a2.77,2.77,0,0,0,0-.39M15.54,19.6V17.68h2V19.6h.95V14.89h-.95v1.88h-2V14.89h-.95V19.6Z" transform="translate(0 0)"/><path class="cls-4" d="M46,17.62A19,19,0,0,0,39.72,5.8,22.79,22.79,0,0,0,24.31,0,22.81,22.81,0,0,0,8.9,5.8,19,19,0,0,0,2.67,17.49,3.86,3.86,0,0,0,0,21.05V28.2a3.94,3.94,0,0,0,3.31,3.74,18.69,18.69,0,0,0,5.24,8,21.21,21.21,0,0,0,6.45,4A2.51,2.51,0,0,0,17.56,46H23a2.36,2.36,0,1,0,0-4.69H17.56a2.7,2.7,0,0,0-1.58.49A17.54,17.54,0,0,1,5.92,31.8a3.87,3.87,0,0,0,2.77-3.6V21.05A3.73,3.73,0,0,0,6.9,17.92c1-7.9,8.44-14,17.41-14s16.28,6.06,17.4,13.88a3.78,3.78,0,0,0-2.08,3.3V28.2A4,4,0,0,0,43.84,32h.27a4,4,0,0,0,4.21-3.83V21.05A3.8,3.8,0,0,0,46,17.62" transform="translate(0 0)"/></g></svg>