<svg id="Layer_1" data-name="Layer 1" xmlns="http://www.w3.org/2000/svg" xmlns:xlink="http://www.w3.org/1999/xlink" viewBox="0 0 24.33 24.14"><defs><style>.cls-1{fill:none;}.cls-2{clip-path:url(#clip-path);}.cls-3{fill:#e5ecef;}.cls-4{fill:#004161;}</style><clipPath id="clip-path" transform="translate(-0.84 -0.93)"><rect class="cls-1" x="0.84" y="0.93" width="24.33" height="24.14"/></clipPath></defs><g class="cls-2"><rect class="cls-3" width="24.33" height="24.14" rx="2.88"/><path class="cls-4" d="M12.26,9.58a1,1,0,0,0,1.48,0,1,1,0,0,0,.32-.74,1,1,0,0,0-.32-.75,1,1,0,0,0-1.48,0,1,1,0,0,0-.32.75,1,1,0,0,0,.32.74m-1.67,7.2v1.44h4.82V16.78H13.9v-6H11.17V12h.93v4.75Z" transform="translate(-0.84 -0.93)"/></g></svg>