<svg id="Layer_1" data-name="Layer 1" xmlns="http://www.w3.org/2000/svg" xmlns:xlink="http://www.w3.org/1999/xlink" viewBox="0 0 24.51 24.51"><defs><style>.cls-1,.cls-3{fill:none;}.cls-2{clip-path:url(#clip-path);}.cls-3{stroke:#fff;stroke-miterlimit:10;}</style><clipPath id="clip-path" transform="translate(-0.24 -0.24)"><rect class="cls-1" x="0.24" y="0.24" width="24.51" height="24.51"/></clipPath></defs><g class="cls-2"><path class="cls-3" d="M17.33,12.85A4.84,4.84,0,1,1,12.49,8,4.84,4.84,0,0,1,17.33,12.85Zm-5-9.58c2.57-.16,2,1.21,3.13-1.47.11-.19.16-.44.35-.56.34-.2.68.13,1,.24.84.41,1.7.79,2.54,1.2a.48.48,0,0,1,.16.54c-.3.73-.79,1.52-1,2.24,2.68,2.11.57,2.7,4.13,1.39A.5.5,0,0,1,23,7c.45,1,.77,2.15,1.18,3.21a.48.48,0,0,1-.19.66c-.77.29-1.55.55-2.32.84a8.16,8.16,0,0,1-.05,2.15c-.07.52-.33.82.3,1l1.67.79a.45.45,0,0,1,.22.37c-.34,1-.95,2-1.38,3.06-.08.18-.18.39-.39.44a.56.56,0,0,1-.38-.07c-.69-.28-1.46-.76-2.13-1-2.26,2.8-2.65.5-1.38,4.21,0,.28-.25.44-.5.5-3.8,1.23-3.16,1.88-4.06-.64-.23-.63-.16-.94-.95-.79a7.88,7.88,0,0,1-2.27-.26,24.73,24.73,0,0,1-1.11,2.25.44.44,0,0,1-.48.06L7.18,23l-1.47-.69A.47.47,0,0,1,5.5,22a.58.58,0,0,1,0-.23l.67-1.41c.36-.74.51-.76-.18-1.29-2.16-2.29-.52-1.84-3.67-.92a.44.44,0,0,1-.44-.3c-.33-.89-.64-1.78-1-2.67-.11-.34-.38-.8,0-1,.74-.28,1.5-.54,2.24-.81.22-.34-.05-1.15.09-1.64-.1-.45.48-1.29,0-1.44S2,9.68,1.34,9.35a.46.46,0,0,1-.16-.5c.27-.58.55-1.17.83-1.75s.43-.95.66-1.4a.46.46,0,0,1,.44-.19c.54.19,1.06.5,1.58.72.32.08.7.55.9.14C7.42,4.14,8.11,5.65,7,3c-.58-1,.33-1.12,1.1-1.4S9.63,1,10.38.75a.47.47,0,0,1,.38.12,14.23,14.23,0,0,1,.65,1.68c.19.56.18.87.87.72" transform="translate(-0.24 -0.24)"/></g></svg>