<svg id="Layer_1" data-name="Layer 1" xmlns="http://www.w3.org/2000/svg" xmlns:xlink="http://www.w3.org/1999/xlink" viewBox="0 0 49.13 49.13"><defs><style>.cls-1{fill:none;}.cls-2{clip-path:url(#clip-path);}.cls-3{fill:#014161;}</style><clipPath id="clip-path" transform="translate(-0.5 -0.48)"><rect class="cls-1" x="0.5" y="0.47" width="49.13" height="49.13"/></clipPath></defs><g class="cls-2"><path class="cls-3" d="M22.65,17.06l-.41.14-.39.16-.4.17-.37.19-.36.21-.34.22c-.1.06-.2.14-.34.24l-.32.26-.31.27a3.7,3.7,0,0,0-.28.28l-.28.29-.26.31-.25.32c-.07.1-.15.21-.22.33s-.13.2-.22.34-.13.23-.19.34-.12.24-.18.36-.11.24-.16.37-.1.26-.15.37l-.12.38c0,.09-.07.22-.11.39h0q-.06.24-.09.39c0,.09,0,.23-.07.39s0,.3,0,.41a2.56,2.56,0,0,0,0,.39c0,.16,0,.29,0,.41v.41l0,.42c0,.11,0,.25.05.41s0,.26.07.4.06.29.09.41l.11.42c.05.13.09.27.14.4s.09.24.16.4.12.28.17.39l.19.37.21.36c.08.14.15.26.22.36l.24.32.26.33c.08.1.18.2.27.3s.19.2.27.29l.3.28c.11.09.22.18.3.26l.33.24.33.23.33.21.35.2.36.18.37.16.37.14.38.13.38.11.39.09.4.06.4.06.4,0h.82l.41,0,.41-.06a3.2,3.2,0,0,0,.41-.07,2.26,2.26,0,0,0,.41-.09l.42-.11.4-.13.4-.16.39-.17.37-.19.36-.21.35-.23a3.43,3.43,0,0,0,.33-.24,3.92,3.92,0,0,0,.32-.25l.31-.27.29-.28.27-.29.26-.31.25-.32.23-.32c0-.1.13-.21.21-.35l.2-.34c.06-.13.12-.24.17-.37h0c.06-.12.11-.24.16-.37a3.59,3.59,0,0,0,.15-.37,2.78,2.78,0,0,0,.12-.38c0-.1.07-.23.12-.39s.06-.29.09-.39,0-.22.06-.39.05-.3.06-.41l0-.4c0-.15,0-.28,0-.41s0-.26,0-.4a2.54,2.54,0,0,0,0-.41c0-.12,0-.26,0-.42s0-.26-.07-.41a4.18,4.18,0,0,0-.09-.41c0-.16-.07-.3-.11-.41a4,4,0,0,0-.14-.41c0-.1-.09-.24-.15-.39s-.12-.28-.18-.4-.1-.2-.19-.36l-.2-.37L32,20.34c-.05-.08-.14-.19-.24-.33s-.17-.21-.25-.31-.18-.22-.27-.31a4,4,0,0,0-.28-.29l-.29-.28-.31-.26L30,18.31l-.33-.22-.34-.21-.35-.2-.35-.18h0l-.36-.16-.38-.14-.37-.13L27.11,17l-.39-.09-.4-.07-.4-.05a2.6,2.6,0,0,0-.4,0H24.7l-.41,0-.41.05-.41.07a3.52,3.52,0,0,0-.41.1l-.41.1m-.95-1.39.48-.16.49-.13.49-.11.49-.09.49,0h0l.5,0h1l.49,0a4.58,4.58,0,0,1,.47.06,4.31,4.31,0,0,1,.48.08l.46.11c.13,0,.29.07.47.13l.45.15.44.17.45.19.42.22.42.23.4.25L31,17l.37.29.37.31a3.46,3.46,0,0,1,.35.33c.13.12.24.24.34.34l.33.37L33,19a4.37,4.37,0,0,1,.28.4,4.73,4.73,0,0,1,.27.41,4.26,4.26,0,0,1,.25.44c.06.1.14.25.23.44l.21.46.18.48c.06.16.11.32.16.48s.11.35.14.49.08.34.11.49.06.32.08.49,0,.31.06.49h0a4,4,0,0,1,0,.49c0,.15,0,.31,0,.48s0,.34,0,.49,0,.32,0,.48,0,.34-.06.48,0,.27-.09.47-.07.35-.1.47-.08.28-.14.46-.09.3-.14.45-.12.31-.18.45-.12.28-.19.43h0l-.21.42c-.07.15-.16.29-.23.42l-.26.41-.27.39-.3.38a3.84,3.84,0,0,1-.31.36c-.09.12-.2.23-.32.36l-.35.34c-.12.11-.24.22-.37.32l-.38.3-.4.29h0l-.41.26-.43.26-.45.22c-.18.08-.33.16-.47.21s-.29.11-.47.18l-.49.16-.49.14-.49.11-.48.08c-.15,0-.32,0-.5.06h0l-.49,0h-1l-.48,0-.48-.06-.47-.09c-.19,0-.35-.07-.47-.1l-.46-.13-.46-.15-.44-.18c-.14,0-.29-.12-.44-.19a3.29,3.29,0,0,1-.42-.21L20,33.6l-.4-.26-.39-.27-.38-.29-.37-.31-.35-.33-.34-.35c-.11-.12-.22-.24-.32-.37a3.57,3.57,0,0,1-.3-.38c-.08-.1-.18-.24-.29-.4l-.27-.41c-.09-.17-.18-.31-.25-.43h0l-.23-.44-.2-.47c-.06-.13-.12-.29-.19-.47s-.11-.32-.16-.48-.1-.36-.14-.5-.07-.33-.11-.48,0-.32-.08-.49,0-.32-.05-.49h0c0-.17,0-.33,0-.48s0-.32,0-.49,0-.34,0-.49a3.88,3.88,0,0,1,0-.48,4.81,4.81,0,0,1,.06-.48,4.2,4.2,0,0,1,.08-.47c0-.19.08-.35.11-.47h0a3.86,3.86,0,0,1,.13-.46c0-.15.1-.3.15-.46s.11-.3.17-.44.12-.29.19-.44l.21-.42q.12-.22.24-.42c.06-.11.15-.25.25-.41l.27-.39.3-.38.31-.37c.09-.11.2-.22.33-.35l.34-.34.37-.32.38-.3.4-.28h0a4.28,4.28,0,0,1,.42-.26,3.48,3.48,0,0,1,.43-.25h0l.45-.22.46-.21.48-.19M23.2,5.34h0m5.26,38.85c-.06-.18-.17-.46,0,0m-1.53.55c-.2-.56-.13-.36-.05-.16ZM44.22,21.65h0m.55,1.52c-.57.2-.37.13-.16.06M24.87,7.36h-.21a6.05,6.05,0,0,0-1,.08h0c-.13,0-.24,0-.39,0a1.38,1.38,0,0,1-.5-.05,1.2,1.2,0,0,1-.52-.35A1.51,1.51,0,0,1,22,6.66a6.25,6.25,0,0,1-.3-.77c-.14-.39,0,.12-.09-.26l-.11-.33L21.34,5l-.12-.33-.11-.33L21,4l-.12-.34-.12-.32L20.63,3l-.12-.33-.12-.33v0l-.2.07-.41.15-.41.15-.42.15L18.53,3l-.41.15-.41.14-.42.15-.41.15-.41.14-.41.15L15.65,4l-.41.15L15,4.2v0l.11.32.12.32.11.32.12.32.11.32.12.32.11.33.12.31.11.33.12.32.07.19h0c.13.37.22.62.28.84a1.8,1.8,0,0,1,.05.5h0a1.15,1.15,0,0,1-.22.6A1.51,1.51,0,0,1,16,9.9l-.33.19h0c-.21.12-.48.27-.84.52l-.18.13-.16.13-.18.13-.17.13-.17.13-.16.14-.16.14a1.19,1.19,0,0,0-.17.14l-.16.14-.16.14-.15.14-.16.15c0,.06-.1.1-.15.15l-.15.15-.16.15a1.77,1.77,0,0,1-.14.16c-.29.3-.48.55-.62.72l0,0h0l-.25.29a1.4,1.4,0,0,1-.4.31,1.1,1.1,0,0,1-.62.12,1.48,1.48,0,0,1-.47-.12c-.19-.07-.41-.17-.7-.31l-.29-.13h0l-.32-.15-.32-.14-.32-.16h0l-.32-.15L7.29,13,7,12.88H7l-.32-.15-.32-.15h0L6,12.43H6l-.32-.15,0,0-.09.19-.19.4-.18.39-.19.4-.19.4-.18.39-.19.4h0l-.18.4-.19.39h0l-.19.4-.18.39-.19.4h0l-.19.39-.08.19h0l.31.15.3.14.31.15.31.14h0l.3.15.31.14h0l.31.15.31.14.3.15.32.15c.47.21.12.05.23.11.31.14.54.25.72.35h0a1.37,1.37,0,0,1,.39.31A1.11,1.11,0,0,1,8,20.2a1.76,1.76,0,0,1,0,.51c0,.11,0,.23-.09.37v0a8.93,8.93,0,0,0-.21.94,1.76,1.76,0,0,1,0,.21s0,.05,0,.21l0,.21a1.15,1.15,0,0,0,0,.21l0,.22,0,.2c0,.06,0,0,0,.22s0,.19,0,.21,0,.18,0,.21,0,.17,0,.22,0,.16,0,.21,0,.16,0,.22v.86a9.88,9.88,0,0,0,.08,1v0c0,.13,0,.24,0,.39a1.53,1.53,0,0,1-.06.49,1.08,1.08,0,0,1-.34.53,1.51,1.51,0,0,1-.43.27,5.87,5.87,0,0,1-.77.29l-.25.09-.33.12L5,28.76l-.33.12L4.33,29,4,29.12l-.34.12-.33.12L3,29.48l-.33.12-.33.12h0l.07.2.15.41.15.42.14.4.16.41.14.42.15.41.15.41.15.41.15.42.14.4.15.42.15.41.07.19h0l.32-.12.32-.11.32-.12.32-.11.32-.12.32-.11.33-.12.31-.11L7.14,34l.32-.11.19-.07h0a6.25,6.25,0,0,1,.84-.28A1.49,1.49,0,0,1,9,33.5H9a1.17,1.17,0,0,1,.59.22h0a1.2,1.2,0,0,1,.34.37,2.39,2.39,0,0,1,.2.33h0a9.25,9.25,0,0,0,.52.83l.13.18c.05.08,0,0,.13.17l.13.18.13.16.13.17.14.17.14.16.14.17.14.16.14.15a1,1,0,0,1,.14.16h0l.14.15.15.16.15.15.15.15.16.15a8.33,8.33,0,0,0,.72.62l0,0h0a3.74,3.74,0,0,1,.29.25,1.31,1.31,0,0,1,.31.4,1.08,1.08,0,0,1,.12.61,1.54,1.54,0,0,1-.12.48c-.07.19-.18.4-.31.69l-.14.29-.15.31-.15.33-.15.32h0l-.15.32-.15.31-.15.32h0l-.15.31-.15.33-.15.31h0l-.15.32,0,0,.19.09.4.18.39.19.4.19.4.18.39.18.4.2h0l.39.18.4.18h0l.4.19.39.19.4.18h0l.39.18.19.09h0l.15-.31.14-.31.15-.31.14-.3h0l.15-.31.14-.3h0l.15-.3.14-.31.14-.31.15-.31.11-.23c.15-.32.26-.54.36-.72a1.91,1.91,0,0,1,.31-.4,1.14,1.14,0,0,1,.57-.28,1.21,1.21,0,0,1,.5,0,2.27,2.27,0,0,1,.38.09h0c.22,0,.51.13.93.21l.22,0,.21,0,.21,0,.21,0,.21,0,.21,0,.22,0h.21l.21,0h.21l.22,0h1.08a7.59,7.59,0,0,0,1-.08h0a2.38,2.38,0,0,1,.39,0,1.32,1.32,0,0,1,.49,0,1.18,1.18,0,0,1,.53.35,1.6,1.6,0,0,1,.27.42c.09.2.17.44.3.77s0,.12,0,0l.09.26.12.32.12.34.12.33.12.33.12.33.12.33.12.34.11.33.12.33.13.33v0l.2-.07.41-.16.41-.14.41-.15.42-.15L32,47l.41-.15.41-.15.41-.15.41-.15.41-.15.42-.15.41-.15.19-.06v0L35,45.53l-.11-.31-.12-.32-.11-.33-.12-.31-.11-.33-.12-.32-.11-.32L34.05,43l-.12-.32-.06-.19a6.2,6.2,0,0,1-.28-.83,1.88,1.88,0,0,1-.06-.5,1.19,1.19,0,0,1,.22-.61,1.72,1.72,0,0,1,.37-.34l.33-.2h0a7.81,7.81,0,0,0,.83-.53l.18-.12h0a1.13,1.13,0,0,0,.17-.12l.18-.13a1.08,1.08,0,0,1,.16-.13,1.29,1.29,0,0,0,.17-.14l.17-.13.16-.14.17-.14.16-.14.15-.14.16-.15.15-.14.16-.15.15-.15.15-.16.15-.15c.29-.31.48-.55.62-.73l0,0a3.7,3.7,0,0,1,.24-.29,1.2,1.2,0,0,1,.41-.31,1.07,1.07,0,0,1,.61-.12,2,2,0,0,1,.48.12c.19.07.4.17.69.31l.29.13.31.15.33.16.31.15h0l.32.15.31.15.32.15h0l.31.15.32.15.32.15h0l.32.15h0l.1-.19.18-.39.18-.4.19-.39.19-.4.18-.39.19-.4.19-.4.18-.39h0l.19-.39h0l.19-.39.18-.4h0l.18-.39.09-.2h0l-.31-.14-.31-.15L46,32.24l-.31-.14h0L45.33,32,45,31.8h0l-.3-.14-.32-.14-.3-.15-.31-.15-.23-.11c-.32-.14-.54-.25-.72-.35a1.68,1.68,0,0,1-.4-.31,1.09,1.09,0,0,1-.28-.58,1.41,1.41,0,0,1,0-.5c0-.11.06-.23.1-.37v0c.06-.22.14-.51.22-.93,0-.15,0-.19,0-.21a1.4,1.4,0,0,0,0-.21l0-.21a1.15,1.15,0,0,0,0-.21l0-.21c0-.13,0-.2,0-.22a1.48,1.48,0,0,0,0-.21,1.24,1.24,0,0,0,0-.21c0-.12,0-.19,0-.22s0-.18,0-.21a2,2,0,0,0,0-.21,1.94,1.94,0,0,0,0-.22v-.86a9.88,9.88,0,0,0-.08-1v0c0-.13,0-.24,0-.39a1.63,1.63,0,0,1,.06-.5,1.05,1.05,0,0,1,.35-.52,1.38,1.38,0,0,1,.42-.27,7.26,7.26,0,0,1,.77-.29h0l.25-.1.33-.11.34-.12.33-.13.33-.11.33-.12.33-.12.34-.12.32-.12.34-.12.33-.12h0l-.08-.2-.15-.41-.14-.41-.15-.42-.15-.4L47,18.09l-.16-.41-.14-.42-.15-.4-.15-.42L46.27,16l-.15-.41L46,15.21,45.9,15h0l-.32.11-.32.12-.33.11-.31.12-.33.11-.32.12-.32.12-.32.11-.32.12-.32.11-.19.07c-.36.13-.61.22-.83.28a1.55,1.55,0,0,1-.51.05,1.14,1.14,0,0,1-.6-.21,1.78,1.78,0,0,1-.34-.38,3.19,3.19,0,0,1-.2-.33h0c-.12-.2-.27-.47-.53-.83l-.12-.18-.14-.17-.12-.18L39,14.11,38.83,14l-.13-.17h0a1.31,1.31,0,0,0-.13-.17l-.14-.16-.14-.15c-.06-.08-.12-.13-.14-.17L38,13l-.14-.16h0l-.14-.15-.15-.15-.16-.15-.15-.15a7.89,7.89,0,0,0-.73-.62l0,0-.29-.25a1.44,1.44,0,0,1-.31-.4,1.08,1.08,0,0,1-.12-.61,1.54,1.54,0,0,1,.12-.48,7,7,0,0,1,.31-.69,2.63,2.63,0,0,1,.14-.3l.15-.31.15-.32.15-.32.15-.32.15-.32L37.22,7l.16-.33.14-.31h0L37.68,6l.14-.31,0,0-.19-.09-.4-.18-.39-.19L36.46,5l-.39-.18-.4-.19-.39-.19-.4-.18-.39-.19h0l-.4-.19h0l-.4-.18-.4-.19h0L32.9,3.3l-.19-.08h0l-.14.31-.15.31h0l-.14.31-.14.31h0l-.15.3-.14.31-.14.31-.15.31L31.4,6h0l-.14.31-.1.23c-.15.31-.26.54-.37.72a1.89,1.89,0,0,1-.3.4A1.21,1.21,0,0,1,29.9,8a1.41,1.41,0,0,1-.5,0L29,7.84h0c-.22,0-.51-.14-.93-.21l-.21,0-.21,0-.21,0-.21,0-.22,0-.21,0-.21,0-.22,0-.21,0H24.87Zm-.25-1.61H26l.23,0h.23l.24,0,.23,0,.23,0,.23,0,.23,0,.23,0,.23,0,.23,0a10.36,10.36,0,0,1,1.09.25h0q.09-.17.21-.42l.11-.23.14-.31h0l.14-.3.15-.31h0l.15-.31.14-.31.15-.3.14-.32.14-.3h0l.14-.3h0l.15-.31.14-.31.15-.3v0h0l0,0h0l0,0h0l0,0h0l0,0h0l0,0h0l0,0h0l0,0h0l0,0h0l0,0h0l0,0h0l0,0h0l0,0h0l0,0h.08l0,0h.42l0,0h.11l0,0h.05l0,0,.39.18.4.19L34,2l.39.18h0l.4.19h0l.39.18.4.19L36,3l.39.18.4.19.39.19.4.18.4.19.39.19.4.18.39.18,0,0h0l0,0h0l0,0h0l0,0h0l0,0h0l0,0h0l0,0h0l0,0h0l0,0h0l0,0h0v0h0l0,0h0l0,0h0v0h0l0,0h0V5a.18.18,0,0,1,0,.06h0v.11h0v0h0v0h0v0h0v0h0v0h0v0h0v0h0v0h0v0h0v0h0l0,0h0v0L39.44,6l-.15.32-.15.32L39,7h0l-.15.32-.15.32L38.54,8h0l-.15.32-.15.32-.15.31-.15.33-.15.31h0c0,.1-.09.2-.14.29s-.15.32-.2.44l0,0,0,0c.21.17.49.39.85.72a1.33,1.33,0,0,0,.17.16l.16.17.17.16a1.33,1.33,0,0,0,.16.17l.16.17.15.17.16.17.15.18.16.18.15.18.14.18.15.18h0l.15.18.14.19.14.19h0l.14.19a10.67,10.67,0,0,1,.62,1h0l0,0,.5-.17.2-.07.31-.12.32-.11.33-.12.31-.11.33-.12.32-.11.32-.12.32-.12.32-.11.32-.12.32-.11.32-.12h.71l0,0h0l0,0h0l0,0h0l0,0h0l0,0h0l0,0h0l0,0h0l0,0h0l0,0h0l0,0h0l0,0v0l0,0h0l0,.06h0v0h0v0l.15.41.15.41.15.42.14.4.15.42.15.41.15.41.15.41.15.41.14.42.16.41.14.41.15.41.15.41.14.41.15.42h0l0,0h0v0h0v0h0v.05h0v0h0v.09h0v0h0v0h0v0a.46.46,0,0,0,0,.09h0l0,.05h0v0h0l0,0h0v0l0,.07v0h0l0,0h0l0,0h0l0,0h0l0,0h0l0,0h0a.22.22,0,0,1-.09.07v0h0l0,0h0l-.05,0h0l0,0H49l-.33.12-.34.12L48,22l-.34.11-.33.12-.33.13-.34.11-.32.12-.34.12-.33.12-.33.12-.33.12-.25.09-.16.06a2.45,2.45,0,0,0-.34.13v.08a8.3,8.3,0,0,1,.09,1.15v.94a1.77,1.77,0,0,1,0,.24,1.55,1.55,0,0,1,0,.23,1.42,1.42,0,0,1,0,.24c0,.12,0,.19,0,.23a1.62,1.62,0,0,1,0,.23,2,2,0,0,1,0,.23c0,.13,0,.21,0,.23a1.77,1.77,0,0,0,0,.24,1.35,1.35,0,0,0,0,.23l0,.23,0,.22,0,.23a10.84,10.84,0,0,1-.26,1.1v0l.42.2.24.11.3.14.32.15.31.14.3.15.31.14h0l.31.15.3.14.32.15.31.14.31.15.3.14.31.15h.07l0,0h0l0,0h0l0,0h0l0,0h0l0,0h0l0,0h0l0,0h0l0,0h0l0,0h0l0,0h0l0,0h0l0,0h0v0h0v0h0l0,0h0v0h0v0h0v.05h0v0h0v0h0v0h0v.06h0v0h0v0h0v0h0v0h0l0,0h0v0h0l0,0h0v0l-.19.39-.18.4-.19.4-.18.4-.19.39h0l-.19.4-.18.39h0l-.19.4-.19.39-.18.4-.19.39-.19.4-.18.4-.19.4-.19.39-.18.39v0h0l0,.05h0l0,0h0l0,0h0l0,0h0l0,0h0l0,0h0l0,0h0l0,0h0l0,0h0l0,0h0l0,0h0l0,0h-.05l0,0h0l0,0h-.64l-.05,0h0l-.32-.16-.32-.14h0l-.32-.15h0L43.11,39h0l-.32-.16-.32-.15-.31-.15-.32-.15h0l-.32-.15-.32-.15-.32-.15-.32-.15c-.4-.18-.25-.11-.29-.14l-.44-.2,0,0,0,0a10,10,0,0,1-.72.85l-.16.16-.16.17-.17.16c-.06.06-.11.12-.16.16l-.18.17a1.71,1.71,0,0,0-.16.16l-.18.15-.18.16a1.67,1.67,0,0,0-.17.15l-.18.15-.18.15-.19.15a1.13,1.13,0,0,0-.19.14l-.18.14-.19.14h0l-.19.13a9.46,9.46,0,0,1-1,.62h0c0,.13.11.3.18.5l.07.2.11.31.12.33.11.32.12.31.12.33.11.32.12.32.11.32.12.32.11.32.12.32.11.32v0h0v0h0v.06h0v0h0v0h0v.06h0v.06h0v.05h0v0h0v0h0v0h0v0h0v0h0v0h0l0,0h0l0,0h0l0,0h0l0,0h0l0,0h0l0,0h0l0,0h0l0,0h0l0,0h0l0,0h0l0,0h0l0,0h0l-.05,0h0s0,0-.06,0h0l0,0h0l-.42.14-.41.15-.41.15-.41.15-.41.14-.41.15-.41.15-.42.15-.41.15-.41.15-.41.15-.42.14-.4.15-.41.15-.42.14-.41.16h-.46l-.1,0h-.07l0,0h0l0,0h0l0,0h0l0,0h0l0,0h0l0,0h0l0,0h0l0,0h0l-.07-.08v0h0l0-.05h0v0h0v0h0v0h0v0l-.12-.33-.12-.33L28.1,48,28,47.64l-.12-.33L27.74,47l-.12-.33-.12-.33L27.38,46l-.11-.32-.12-.34L27,45l-.1-.25c.06.16,0,0-.05-.16s-.1-.25-.13-.34h-.09a9.52,9.52,0,0,1-1.14.1H24.35l-.24,0h-.47l-.23,0-.23,0-.23,0-.24,0-.23,0-.23,0-.22,0-.24,0c-.47-.09-.83-.18-1.09-.25h0l-.2.42-.11.24-.15.31-.14.31-.14.31-.15.3h0l-.15.31h0l-.14.3-.15.31-.14.31-.14.31-.15.31-.15.3-.14.31v0h0l0,0h0l0,0h0v0h0l0,0h0l0,0h0l0,0h0l0,0h0l0,0h0l0,0h0l0,0h0l0,0h0l0,0H18l0,0h0l0,0h-.39l-.11,0h0l0,0h0l-.4-.18-.39-.19-.4-.19-.4-.18-.39-.19-.4-.19-.39-.18h0l-.39-.19-.4-.18-.39-.19-.4-.19-.39-.18-.4-.19-.4-.19-.4-.18L11,45.63h0l-.05,0h0l0,0h0l0,0h0l0,0h0l0,0h0l0,0h0l0,0h0l0,0h0v0h0l0,0h0l0,0h0v0h0v0h0l0,0h0l0,0h0v0h0v0h0v0h0v0h0v0h0v-.07h0v0h0v0h0v0h0v0h0v0h0v0h0v0h0l0,0h0l.15-.33.15-.31h0L11,43.4l.14-.32h0l.16-.32.14-.31.16-.32.14-.32h0l.15-.32.15-.32.15-.32.15-.32.14-.29a3.72,3.72,0,0,0,.2-.44l0,0h0l0,0a7.6,7.6,0,0,1-.85-.72l-.17-.16-.17-.16a1.21,1.21,0,0,0-.16-.16l-.16-.17L11,38.2h0L10.8,38l-.16-.18-.15-.17-.15-.18-.15-.18L10,37.15,9.9,37l-.15-.19-.14-.19a2.17,2.17,0,0,1-.14-.19l-.14-.19a9.08,9.08,0,0,1-.61-1h0l0,0-.49.17-.2.07-.32.11-.32.12L7,35.77l-.32.12L6.4,36l-.32.12-.32.12-.33.12-.32.11-.31.12-.33.11-.32.12H3.49l-.05,0h0l-.07,0H3.29l0,0h0l0,0h0l0,0h0l0,0h0l0,0h0l0,0h0l0,0h0l0,0H3l0,0a.36.36,0,0,0,0-.07v0H3l0,0h0v0l-.15-.42-.14-.4L2.48,35l-.14-.41-.15-.41L2,33.77l-.15-.41-.14-.42-.15-.4-.15-.42-.15-.41-.15-.41L1,30.89l-.15-.42-.14-.41-.15-.41v0h0v0h0v0h0v0h0v0h0v0h0v-.1h0v0h0v0h0v-.05h0v0h0v0h0v0h0l0,0h0v0h0v0h0v0h0l0,0h0l0,0h0l0,0h0l0,0h0l0,0h0l0,0h0l0,0h0l0,0h0l0,0h0l0,0H1l0,0h.05l0,0h0l.33-.12.33-.12.33-.11L2.46,28l.34-.12.32-.12.34-.11.33-.12.33-.12.33-.12.33-.12L5.12,27l.25-.1.5-.18v-.09a10.65,10.65,0,0,1-.08-1.14,1.77,1.77,0,0,1,0-.24v-.46a1.7,1.7,0,0,1,0-.24v-.24a2.11,2.11,0,0,0,0-.23h0a2.2,2.2,0,0,0,0-.23c0-.12,0-.19,0-.23a2.11,2.11,0,0,1,0-.24,2,2,0,0,1,0-.23c0-.14,0-.21,0-.23s0-.22,0-.24,0,0,0-.23l0-.23L6,22l0-.23c.08-.48.18-.83.25-1.1v0l-.42-.2-.24-.11-.3-.14L5,20l-.31-.14-.31-.15h0l-.3-.15h0l-.31-.14-.3-.14-.31-.15L2.88,19h0l-.31-.15-.31-.15L2,18.58h0l0,0h0l0,0h0l0,0h0l-.05,0h0l0,0h0l0,0h0l0,0h0l0,0h0l0,0h0l0,0h0l0,0h0l0,0h0l0,0h0l0,0h0l0,0h0V18h0v0h0v0h0v-.05h0v0h0v0h0v0h0v0h0v0h0v0h0l0,0h0v-.05h0v0h0v0h0l0-.05h0l.19-.4.19-.39.18-.4.19-.4h0l.19-.39h0l.18-.39.19-.39h0L3,14.14l.18-.39.18-.4L3.54,13l.19-.4.18-.4.19-.4.19-.39.18-.4h0l0,0h0l0,0v0l0,0h0l0,0h0l0,0h0l0,0h0l0,0h0l0,0h0l0,0h0l0,0h0l0,0h0l0,0H5l0,0H5l0,0h.61l.1,0,.31.15.32.15h0L6.7,11l.32.15H7l.31.15.32.15.32.15.32.15.32.15h0l.31.15.33.15.31.15h0l.29.13.43.21,0,0h0l0,0a9.28,9.28,0,0,1,.73-.85l.15-.17.17-.16.16-.17.17-.16s0,0,.17-.16l.17-.16.17-.15.18-.16.18-.15.18-.15L13,10l.18-.14.19-.15.18-.14.19-.14.19-.14a8.81,8.81,0,0,1,1-.61h0l0,0-.17-.49L14.68,8l-.12-.32-.11-.32L14.33,7l-.11-.32-.12-.32L14,6.05l-.12-.32-.11-.32-.12-.33-.12-.31-.12-.33-.11-.32a1.21,1.21,0,0,1,0-.18h0a.6.6,0,0,1,0-.19h0a1,1,0,0,1,0-.18,1.77,1.77,0,0,1,.06-.17h0l.1-.16h0l.12-.14L13.69,3a.49.49,0,0,1,.18-.08l.41-.15.41-.15.41-.15.41-.15.42-.15L16.34,2l.41-.15.41-.14.41-.15L18,1.42l.41-.14.41-.15L19.22,1l.41-.15L20,.68l.42-.15h.62l0,0h.1l0,0h0l0,0h0l0,0h0l0,0h0l0,0h0l0,0h0l.07.08h0v0h0l0,0h0l0,0V1l0,0h0l0,0h0v0l.12.33.12.33L22,2.1l.11.33.12.34.12.33.12.33.12.33.12.33.12.33.12.34.12.33c.05.15.08.22.09.25h0c.08.21.14.38.18.5h.09a10.89,10.89,0,0,1,1.15-.08" transform="translate(-0.5 -0.48)"/></g></svg>