<svg id="Layer_1" data-name="Layer 1" xmlns="http://www.w3.org/2000/svg" xmlns:xlink="http://www.w3.org/1999/xlink" viewBox="0 0 55.85 48.54"><defs><style>.cls-1,.cls-3{fill:none;}.cls-2{clip-path:url(#clip-path);}.cls-3{stroke:#fff;stroke-linecap:round;stroke-linejoin:round;}</style><clipPath id="clip-path"><rect class="cls-1" x="-0.75" y="-0.75" width="57.35" height="50"/></clipPath></defs><g class="cls-2"><path class="cls-3" d="M42.25,25.15H52.33m-37.95,0h8.36m32.61-9.52H52.48m-36.63,0H11.47M29.64,27.8l-4.7,1.35,2.85-4-2.74-4,4.65,1.47,3-3.84v4.87l4.59,1.66L32.7,26.85l-.17,4.87ZM43.36,16.37l-3.11,4.42L40,15.37l-5.23-1.62,5.08-1.94V6.39l3.41,4.22,5.15-1.73-3,4.55,3.24,4.35ZM24.5,10.63l-4.27,3,1.51-5L17.6,5.5l5.19-.11L24.5.5l1.75,4.89,5.19.11L27.25,8.63l1.51,5ZM48.25,44a4,4,0,1,1-4-4A4,4,0,0,1,48.25,44ZM26.52,44a4,4,0,1,1-4-4,4,4,0,0,1,4,4Zm-9.21-9.37H49.52l5.83-19m-38,19L8.25,5.06H.5"/></g></svg>