<svg id="Layer_1" data-name="Layer 1" xmlns="http://www.w3.org/2000/svg" xmlns:xlink="http://www.w3.org/1999/xlink" viewBox="0 0 47.52 41.29"><defs><style>.cls-1,.cls-3{fill:none;}.cls-2{clip-path:url(#clip-path);}.cls-3{stroke:#004161;stroke-linecap:round;stroke-linejoin:round;}</style><clipPath id="clip-path" transform="translate(-1.27 -3.79)"><rect class="cls-1" x="0.71" y="3.23" width="48.64" height="42.41"/></clipPath></defs><g class="cls-2"><path class="cls-3" d="M37.19,25.2h8.54m-32.18,0h7.09m27.65-8.08H45.86m-31.07,0H11.08m15.4,10.33-4,1.14,2.42-3.36-2.33-3.42,3.95,1.25,2.55-3.26,0,4.13L33,25.34l-3.93,1.3-.14,4.13Zm11.65-9.7L35.45,21.5l-.23-4.59-4.4-1.38,4.31-1.64-.05-4.6L38,12.87l4.37-1.47-2.52,3.86L42.58,19Zm-16-4.87L18.51,15.4l1.28-4.21L16.28,8.53l4.4-.09,1.44-4.15,1.45,4.15L28,8.53l-3.52,2.66,1.28,4.21ZM42.26,41.22a3.37,3.37,0,1,1-3.36-3.35A3.36,3.36,0,0,1,42.26,41.22Zm-18.42,0a3.37,3.37,0,1,1-3.37-3.35A3.36,3.36,0,0,1,23.84,41.22ZM16,33.28H43.35l4.94-16.16M16,33.28,8.33,8.16H1.77" transform="translate(-1.27 -3.79)"/></g></svg>