<svg id="Layer_1" data-name="Layer 1" xmlns="http://www.w3.org/2000/svg" xmlns:xlink="http://www.w3.org/1999/xlink" viewBox="0 0 62.3 20.49"><defs><style>.cls-1,.cls-3,.cls-5{fill:none;}.cls-2{clip-path:url(#clip-path);}.cls-3,.cls-5{stroke:#004161;stroke-width:0.8px;}.cls-3{stroke-miterlimit:10;}.cls-4{fill:#fff;}.cls-6{fill:#ff8022;}.cls-7{fill:#004161;}</style><clipPath id="clip-path" transform="translate(-0.35 -0.76)"><rect class="cls-1" x="0.35" y="0.76" width="62.3" height="20.49"/></clipPath></defs><g class="cls-2"><path class="cls-3" d="M14.17,8.79H12.58a.9.9,0,0,1-.81-1,.9.9,0,0,1,.81-1h1.59a.9.9,0,0,1,.81,1A.9.9,0,0,1,14.17,8.79ZM43.78,1.16H9.65a.9.9,0,0,0-.81,1A1,1,0,0,0,9.41,3h9.43a.89.89,0,0,1,.8,1,.89.89,0,0,1-.8,1h-9V5H7.48a.89.89,0,0,0-.81,1,.89.89,0,0,0,.81,1h.8a.6.6,0,0,1,.24,0H10.1a.89.89,0,0,1,.81,1,.89.89,0,0,1-.81,1H9.87v.05H1.56a.89.89,0,0,0-.81,1,1,1,0,0,0,.57.91H15.64a.9.9,0,0,1,.81,1,.9.9,0,0,1-.81,1H9.87v0H8.71a.89.89,0,0,0-.81,1,1,1,0,0,0,.57.92H14a1,1,0,0,1,0,1.92H9.87v0H6.42a1,1,0,0,0,0,1.93H43.78a1.08,1.08,0,0,0,1-1.16v-15A1.07,1.07,0,0,0,43.78,1.16Z" transform="translate(-0.35 -0.76)"/><path class="cls-3" d="M53.93,9.82H48.68A.71.71,0,0,1,48,9.06V3.8c0-.42.29-.72.63-.66l1.76.31a1.9,1.9,0,0,1,1,.7l2.7,4a2.49,2.49,0,0,1,.4,1.14A.6.6,0,0,1,53.93,9.82Zm8.3,7.5-.86-4.6a2.33,2.33,0,0,0-1.09-1.55L58,10.05a4.8,4.8,0,0,1-1.5-1.32L52.35,2.82a2.66,2.66,0,0,0-1.57-1L47.2,1.33c-.52-.07-1,.39-1,1V17.29a1.07,1.07,0,0,0,1,1.15h3.87A3.24,3.24,0,0,1,54,15a3.24,3.24,0,0,1,2.9,3.49h4.59C62,18.44,62.34,17.94,62.23,17.32Z" transform="translate(-0.35 -0.76)"/><path class="cls-4" d="M53.92,20.85A2.87,2.87,0,1,0,51.06,18a2.87,2.87,0,0,0,2.86,2.86" transform="translate(-0.35 -0.76)"/><path class="cls-5" d="M53.92,20.85A2.87,2.87,0,1,0,51.06,18,2.87,2.87,0,0,0,53.92,20.85Z" transform="translate(-0.35 -0.76)"/><path class="cls-4" d="M20.33,20.85A2.87,2.87,0,1,0,17.47,18a2.87,2.87,0,0,0,2.86,2.86" transform="translate(-0.35 -0.76)"/><path class="cls-5" d="M20.33,20.85A2.87,2.87,0,1,0,17.47,18,2.87,2.87,0,0,0,20.33,20.85Z" transform="translate(-0.35 -0.76)"/><path class="cls-6" d="M27.29,5.29a6.36,6.36,0,0,0-1.48,2.44l0,.09a4,4,0,0,0,.93,4,3.8,3.8,0,0,0,5.45,0l2.4-2.49A1.1,1.1,0,0,0,33,9.3l-1.74,1.81a3,3,0,0,1-4,.3c-2.06-1.65-1.6-5.59,2.61-7.71a6.06,6.06,0,0,0-2.55,1.59m-1,7a4.71,4.71,0,0,1-.58-.77,3.65,3.65,0,0,0,1,1.84,4.39,4.39,0,0,0,6.35,0l2.23-2.3a1.08,1.08,0,0,0-1.57,0l-1.19,1.23a4.34,4.34,0,0,1-6.28,0m1.61,2.58a4.69,4.69,0,0,0,6.58-.41l1.61-1.66a1.08,1.08,0,0,0-1.57,0l-1,1.05a4.84,4.84,0,0,1-5.6,1" transform="translate(-0.35 -0.76)"/><path class="cls-7" d="M36,14.31a6.49,6.49,0,0,0,1.48-2.44l0-.09a4.06,4.06,0,0,0-.94-4,3.8,3.8,0,0,0-5.45,0l-2.4,2.49a1.1,1.1,0,0,0,1.57,0L32,8.49a3,3,0,0,1,4-.3c2,1.65,1.6,5.59-2.61,7.71A6.12,6.12,0,0,0,36,14.31m1-7a4.14,4.14,0,0,1,.57.77,3.51,3.51,0,0,0-1-1.84,4.38,4.38,0,0,0-6.34,0L28,8.55a1.08,1.08,0,0,0,1.57,0l1.19-1.23a4.34,4.34,0,0,1,6.28,0M35.4,4.74a4.71,4.71,0,0,0-6.59.41l-1.6,1.66a1.08,1.08,0,0,0,1.57,0l1-1a4.85,4.85,0,0,1,5.61-1" transform="translate(-0.35 -0.76)"/></g></svg>