<svg id="Layer_1" data-name="Layer 1" xmlns="http://www.w3.org/2000/svg" xmlns:xlink="http://www.w3.org/1999/xlink" viewBox="0 0 44.43 35.46"><defs><style>.cls-1{fill:none;}.cls-2{clip-path:url(#clip-path);}.cls-3{fill:#004161;}.cls-4{fill:#ff8022;}</style><clipPath id="clip-path" transform="translate(-0.78 -0.77)"><rect class="cls-1" x="0.78" y="0.77" width="44.44" height="35.46"/></clipPath></defs><g class="cls-2"><path class="cls-3" d="M44.4,35.28h-4V34h4Zm-13.9,0V30.05a.45.45,0,0,0-.41-.47H26.3a.44.44,0,0,0-.41.47v.62H22.2V28.91a.45.45,0,0,0-.41-.47H15.93a.44.44,0,0,0-.41.47v6.37H14.38V26.5H31.62v8.78Zm-3.79-4.76h3v4.76h-3Zm-4.51,1.1h3.69v3.66H22.2Zm-5.86-2.23h5v5.89h-5Zm-2-2.83H31.62v-1H14.38ZM32,25.61H13.28a.16.16,0,0,1-.16-.17v-.51a.17.17,0,0,1,.16-.17H32.74a.15.15,0,0,1,.14.17v.51a.15.15,0,0,1-.14.17ZM6.39,33.51V13.43L23,4.43l16.63,9V35.28H32.44V26.56h.3a1,1,0,0,0,1-1.12v-.51a1,1,0,0,0-1-1.11H13.28a1.05,1.05,0,0,0-1,1.11v.51a1.06,1.06,0,0,0,1,1.12h.28v8.72H6.39ZM1.6,34h4v1.3h-4Zm4-16.24V33h-4V19.4ZM4.38,11.83,22.73,1.9,23,1.76,41.62,11.83l-.52,1.35L23.17,3.48a.34.34,0,0,0-.34,0L4.92,13.18Zm40,7.57V33h-4V17.74Zm.55-.78-4.51-1.89V13.87l.68.37a.4.4,0,0,0,.32,0,.47.47,0,0,0,.23-.25l.86-2.22a.51.51,0,0,0-.2-.62L23.6,1,23.17.81a.4.4,0,0,0-.34,0L3.67,11.17a.52.52,0,0,0-.2.63L4.35,14a.43.43,0,0,0,.23.25.32.32,0,0,0,.14,0,.34.34,0,0,0,.17,0l.68-.37v2.86L1.05,18.62a.49.49,0,0,0-.27.45V35.76a.44.44,0,0,0,.41.47H44.81a.45.45,0,0,0,.41-.47V19.07a.49.49,0,0,0-.27-.45" transform="translate(-0.78 -0.77)"/><path class="cls-4" d="M18.65,10.87a6.44,6.44,0,0,0-1.48,2.44l0,.1a4,4,0,0,0,.93,4,3.79,3.79,0,0,0,5.45,0l2.4-2.48a1.08,1.08,0,0,0-1.57,0l-1.74,1.8a3,3,0,0,1-4,.3c-2.06-1.64-1.61-5.58,2.6-7.7a6.16,6.16,0,0,0-2.54,1.58m-1,7a4.32,4.32,0,0,1-.58-.77,3.68,3.68,0,0,0,1,1.85,4.4,4.4,0,0,0,6.35,0l2.23-2.31a1.08,1.08,0,0,0-1.57,0l-1.2,1.23a4.33,4.33,0,0,1-6.27,0m1.61,2.58A4.69,4.69,0,0,0,25.83,20l1.6-1.66a1.1,1.1,0,0,0-1.57,0l-1,1.05a4.8,4.8,0,0,1-5.6,1" transform="translate(-0.78 -0.77)"/><path class="cls-3" d="M27.35,19.9a6.44,6.44,0,0,0,1.48-2.44l0-.1a4,4,0,0,0-.93-4,3.79,3.79,0,0,0-5.45,0l-2.4,2.48a1.08,1.08,0,0,0,1.57,0l1.74-1.8a3,3,0,0,1,4-.3c2.06,1.64,1.61,5.58-2.6,7.7a6.16,6.16,0,0,0,2.54-1.58m1-7a4.39,4.39,0,0,1,.58.78,3.68,3.68,0,0,0-1-1.85,4.4,4.4,0,0,0-6.35,0l-2.23,2.31a1.1,1.1,0,0,0,1.57,0l1.2-1.24a4.33,4.33,0,0,1,6.27,0m-1.61-2.57a4.69,4.69,0,0,0-6.58.41l-1.6,1.65a1.08,1.08,0,0,0,1.57,0l1-1a4.8,4.8,0,0,1,5.6-1" transform="translate(-0.78 -0.77)"/></g></svg>