<?xml version="1.0" encoding="utf-8"?>
<!-- Generator: Adobe Illustrator 26.0.2, SVG Export Plug-In . SVG Version: 6.00 Build 0)  -->
<svg version="1.1" id="Layer_1" xmlns="http://www.w3.org/2000/svg" xmlns:xlink="http://www.w3.org/1999/xlink" x="0px" y="0px"
	 viewBox="0 0 38.4 49.7" style="enable-background:new 0 0 38.4 49.7;" xml:space="preserve">
<style type="text/css">
	.st0{fill:none;stroke:#004161;}
	.st1{clip-path:url(#SVGID_00000042013825232755752950000008383251754971219113_);}
	.st2{clip-path:url(#SVGID_00000137845962131620768150000017862161994147273603_);}
	.st3{clip-path:url(#SVGID_00000003064675968392295450000016944063873519607743_);}
</style>
<polygon class="st0" points="5.8,5 34.6,6.6 34.1,39.7 5.8,44.4 "/>
<g>
	<defs>
		<rect id="SVGID_1_" x="-0.2" y="-0.2" width="38.7" height="50"/>
	</defs>
	<clipPath id="SVGID_00000182511267602207806510000013052662868346467460_">
		<use xlink:href="#SVGID_1_"  style="overflow:visible;"/>
	</clipPath>
	<g style="clip-path:url(#SVGID_00000182511267602207806510000013052662868346467460_);">
		<path class="st0" d="M1,2.6c0-1.1,0.9-2.1,2-2.1c0,0,0.1,0,0.1,0c2.1,0,34.1,2.6,34.1,2.6s0.5,0,0.5,1.6v35.7c0,0.9,0,1.2-0.5,1.6
			c-1,0.6-2.2,0.9-3.2,1c-4.8,0.7-30.5,5.8-30.5,5.8s-3.2,1-3.1-2.6C0.5,42,1,2.6,1,2.6z"/>
		<line class="st0" x1="6.3" y1="0.9" x2="6.3" y2="5.7"/>
		<line class="st0" x1="6" y1="44.4" x2="6" y2="48.7"/>
		<line class="st0" x1="11.8" y1="1.2" x2="11.8" y2="5.4"/>
		<line class="st0" x1="17" y1="1.5" x2="17" y2="5.7"/>
		<line class="st0" x1="21.8" y1="1.8" x2="21.8" y2="6"/>
		<line class="st0" x1="26" y1="2" x2="26" y2="6.2"/>
	</g>
</g>
<line class="st0" x1="25.7" y1="41.3" x2="25.7" y2="44.5"/>
<line class="st0" x1="20.7" y1="42.1" x2="20.7" y2="45.3"/>
<line class="st0" x1="16.5" y1="42.9" x2="16.5" y2="46.1"/>
<g>
	<defs>
		<rect id="SVGID_00000142169947428732435810000013848958543786052754_" x="-0.2" y="-0.4" width="38.7" height="50"/>
	</defs>
	<clipPath id="SVGID_00000132804972499195868540000002204216418462955667_">
		<use xlink:href="#SVGID_00000142169947428732435810000013848958543786052754_"  style="overflow:visible;"/>
	</clipPath>
	<g style="clip-path:url(#SVGID_00000132804972499195868540000002204216418462955667_);">
		<line class="st0" x1="11.3" y1="44" x2="11.3" y2="47.1"/>
		<line class="st0" x1="30.2" y1="2.6" x2="30.2" y2="6.3"/>
	</g>
</g>
<line class="st0" x1="30.2" y1="40.3" x2="30.2" y2="43.7"/>
<line class="st0" x1="34.4" y1="2.9" x2="34.4" y2="6.5"/>
<line class="st0" x1="33.9" y1="39.7" x2="33.9" y2="42.9"/>
<g>
	<defs>
		<rect id="SVGID_00000124874868011650042380000009794187679749380248_" x="-0.2" y="-0.4" width="38.7" height="50"/>
	</defs>
	<clipPath id="SVGID_00000114786284664181059490000008830635423500952207_">
		<use xlink:href="#SVGID_00000124874868011650042380000009794187679749380248_"  style="overflow:visible;"/>
	</clipPath>
	<g style="clip-path:url(#SVGID_00000114786284664181059490000008830635423500952207_);">
		<line class="st0" x1="0.5" y1="32.1" x2="5.7" y2="31.6"/>
		<line class="st0" x1="0.5" y1="25.2" x2="5.7" y2="24.7"/>
		<line class="st0" x1="1" y1="18.9" x2="5.7" y2="18.4"/>
		<line class="st0" x1="1" y1="12.1" x2="5.7" y2="12.1"/>
		<line class="st0" x1="1" y1="5.2" x2="5.6" y2="5.2"/>
		<line class="st0" x1="0.5" y1="38.7" x2="5.7" y2="38.2"/>
		<line class="st0" x1="0.5" y1="44.7" x2="5.7" y2="44"/>
		<line class="st0" x1="33.7" y1="39.7" x2="37.8" y2="39.1"/>
		<line class="st0" x1="34.2" y1="34.5" x2="37.8" y2="33.8"/>
		<line class="st0" x1="34.2" y1="29.2" x2="37.8" y2="28.5"/>
		<line class="st0" x1="34.2" y1="23.4" x2="37.8" y2="22.7"/>
		<line class="st0" x1="34.2" y1="18.1" x2="37.8" y2="17.5"/>
		<line class="st0" x1="34.2" y1="12.8" x2="37.8" y2="12.2"/>
		<line class="st0" x1="34.8" y1="7" x2="37.8" y2="6.3"/>
	</g>
</g>
</svg>
