<svg id="Layer_1" data-name="Layer 1" xmlns="http://www.w3.org/2000/svg" xmlns:xlink="http://www.w3.org/1999/xlink" viewBox="0 0 38.3 49.43"><defs><style>.cls-1,.cls-2{fill:none;}.cls-2{stroke:#fff;}.cls-3{clip-path:url(#clip-path);}.cls-4{clip-path:url(#clip-path-2);}</style><clipPath id="clip-path" transform="translate(0.1)"><rect class="cls-1" x="-0.2" y="-0.2" width="38.7" height="50"/></clipPath><clipPath id="clip-path-2" transform="translate(0.1)"><rect class="cls-1" x="-0.2" y="-0.4" width="38.7" height="50"/></clipPath></defs><polygon class="cls-2" points="5.9 5 34.7 6.6 34.2 39.7 5.9 44.4 5.9 5"/><g class="cls-3"><path class="cls-2" d="M1,2.6A2.09,2.09,0,0,1,3,.5h.1C5.2.5,37.2,3.1,37.2,3.1s.5,0,.5,1.6V40.4c0,.9,0,1.2-.5,1.6A7.93,7.93,0,0,1,34,43c-4.8.7-30.5,5.8-30.5,5.8S.3,49.8.4,46.2C.5,42,1,2.6,1,2.6Z" transform="translate(0.1)"/><line class="cls-2" x1="6.4" y1="0.9" x2="6.4" y2="5.7"/><line class="cls-2" x1="6.1" y1="44.4" x2="6.1" y2="48.7"/><line class="cls-2" x1="11.9" y1="1.2" x2="11.9" y2="5.4"/><line class="cls-2" x1="17.1" y1="1.5" x2="17.1" y2="5.7"/><line class="cls-2" x1="21.9" y1="1.8" x2="21.9" y2="6"/><line class="cls-2" x1="26.1" y1="2" x2="26.1" y2="6.2"/></g><line class="cls-2" x1="25.8" y1="41.3" x2="25.8" y2="44.5"/><line class="cls-2" x1="20.8" y1="42.1" x2="20.8" y2="45.3"/><line class="cls-2" x1="16.6" y1="42.9" x2="16.6" y2="46.1"/><g class="cls-4"><line class="cls-2" x1="11.4" y1="44" x2="11.4" y2="47.1"/><line class="cls-2" x1="30.3" y1="2.6" x2="30.3" y2="6.3"/></g><line class="cls-2" x1="30.3" y1="40.3" x2="30.3" y2="43.7"/><line class="cls-2" x1="34.5" y1="2.9" x2="34.5" y2="6.5"/><line class="cls-2" x1="34" y1="39.7" x2="34" y2="42.9"/><g class="cls-4"><line class="cls-2" x1="0.6" y1="32.1" x2="5.8" y2="31.6"/><line class="cls-2" x1="0.6" y1="25.2" x2="5.8" y2="24.7"/><line class="cls-2" x1="1.1" y1="18.9" x2="5.8" y2="18.4"/><line class="cls-2" x1="1.1" y1="12.1" x2="5.8" y2="12.1"/><line class="cls-2" x1="1.1" y1="5.2" x2="5.7" y2="5.2"/><line class="cls-2" x1="0.6" y1="38.7" x2="5.8" y2="38.2"/><line class="cls-2" x1="0.6" y1="44.7" x2="5.8" y2="44"/><line class="cls-2" x1="33.8" y1="39.7" x2="37.9" y2="39.1"/><line class="cls-2" x1="34.3" y1="34.5" x2="37.9" y2="33.8"/><line class="cls-2" x1="34.3" y1="29.2" x2="37.9" y2="28.5"/><line class="cls-2" x1="34.3" y1="23.4" x2="37.9" y2="22.7"/><line class="cls-2" x1="34.3" y1="18.1" x2="37.9" y2="17.5"/><line class="cls-2" x1="34.3" y1="12.8" x2="37.9" y2="12.2"/><line class="cls-2" x1="34.9" y1="7" x2="37.9" y2="6.3"/></g></svg>