<?xml version="1.0" encoding="UTF-8"?>
<svg id="Layer_1" xmlns="http://www.w3.org/2000/svg" xmlns:xlink="http://www.w3.org/1999/xlink" version="1.1" viewBox="0 0 671.29 436.42">
  <!-- Generator: Adobe Illustrator 29.1.0, SVG Export Plug-In . SVG Version: 2.1.0 Build 142)  -->
  <defs>
    <style>
      .st0, .st1, .st2, .st3, .st4 {
        fill: none;
      }

      .st0, .st4 {
        stroke: #104a25;
      }

      .st5 {
        fill: #dbe4de;
      }

      .st6 {
        fill: #3f6f50;
      }

      .st7 {
        fill: #231f20;
      }

      .st8 {
        clip-path: url(#clippath-10);
      }

      .st2, .st3 {
        stroke: #231f20;
      }

      .st2, .st4 {
        stroke-linecap: round;
      }

      .st9 {
        clip-path: url(#clippath-1);
      }

      .st10 {
        clip-path: url(#clippath-3);
      }

      .st11 {
        clip-path: url(#clippath-4);
      }

      .st12 {
        clip-path: url(#clippath-2);
      }

      .st13 {
        clip-path: url(#clippath-7);
      }

      .st14 {
        clip-path: url(#clippath-6);
      }

      .st15 {
        clip-path: url(#clippath-9);
      }

      .st16 {
        clip-path: url(#clippath-8);
      }

      .st17 {
        clip-path: url(#clippath-5);
      }

      .st18 {
        fill: #104a25;
      }

      .st19 {
        fill: #fff;
      }

      .st20 {
        clip-path: url(#clippath);
      }
    </style>
    <clipPath id="clippath">
      <rect class="st1" x="-.64" y="-.32" width="671.29" height="436.42"/>
    </clipPath>
    <clipPath id="clippath-1">
      <rect class="st1" x="-.64" y="-.32" width="671.29" height="436.42"/>
    </clipPath>
    <clipPath id="clippath-2">
      <rect class="st1" x="-.64" y="-.32" width="671.29" height="436.42"/>
    </clipPath>
    <clipPath id="clippath-3">
      <rect class="st1" x="-.64" y="-.32" width="671.29" height="436.42"/>
    </clipPath>
    <clipPath id="clippath-4">
      <rect class="st1" x="-.64" y="-.32" width="671.29" height="436.42"/>
    </clipPath>
    <clipPath id="clippath-5">
      <rect class="st1" x="-.64" y="-.32" width="671.29" height="436.42"/>
    </clipPath>
    <clipPath id="clippath-6">
      <rect class="st1" x="-.64" y="-.32" width="671.29" height="436.42"/>
    </clipPath>
    <clipPath id="clippath-7">
      <rect class="st1" x="-.64" y="-.32" width="671.29" height="436.42"/>
    </clipPath>
    <clipPath id="clippath-8">
      <rect class="st1" x="-.64" y="-.32" width="671.29" height="436.42"/>
    </clipPath>
    <clipPath id="clippath-9">
      <rect class="st1" x="-.64" y="-.32" width="671.29" height="436.42"/>
    </clipPath>
    <clipPath id="clippath-10">
      <rect class="st1" x="-.64" y="-.32" width="671.29" height="436.42"/>
    </clipPath>
  </defs>
  <polygon class="st5" points="80.11 134.93 79.36 291.18 80.11 291.93 97.36 249.93 143.82 183.18 143.82 134.93 80.11 134.93"/>
  <polygon class="st5" points="330.78 196.71 365.55 196.71 365.55 134.8 431.55 134.8 431.55 151.17 448.55 151.17 448.55 78.43 484.8 78.43 484.8 300.87 328.05 299.68 328.05 195.66 330.78 196.71"/>
  <polygon class="st6" points="481.61 348.18 419.11 275.35 354.61 299.68 415.11 371.68 481.61 348.18"/>
  <polygon class="st5" points="65.86 155.93 66.48 195.68 59.55 195.68 59.11 155.18 49.36 136.68 38.86 155.18 38.86 195.18 25.36 195.18 25.36 137.18 -.14 137.18 -.14 299.68 77.11 299.68 81.36 289.33 80.36 135.64 65.86 155.93"/>
  <polyline class="st5" points="244.36 183.18 276.11 183.18 276.11 208.29 289.29 208.29 289.29 182.68 328.61 182.68 328.61 201.94 328.61 299.68 185.32 299.68 185.32 213.85 242.96 184.68"/>
  <g class="st20">
    <line class="st0" x1="173.11" y1="384.18" x2="-.14" y2="384.18"/>
  </g>
  <line class="st0" x1="668.86" y1="384.18" x2="314.11" y2="384.18"/>
  <line class="st3" x1="44.11" y1="383.68" x2="93.86" y2="258.43"/>
  <g class="st9">
    <path class="st3" d="M160.36,302.43s-9.75-1.5-13.5,7.5-24.75,74.75-24.75,74.75"/>
  </g>
  <line class="st3" x1="355.77" y1="299.18" x2="185.4" y2="299.18"/>
  <g class="st12">
    <line class="st3" x1="80.86" y1="-.32" x2="80.86" y2="291.43"/>
    <line class="st3" x1="166.36" y1="-.32" x2="166.36" y2="82.67"/>
    <line class="st3" x1="242.86" y1="-.32" x2="242.86" y2="135.43"/>
    <line class="st3" x1="328.11" y1="-.32" x2="328.11" y2="222.68"/>
    <line class="st3" x1="409.11" y1="-.32" x2="409.11" y2="220.68"/>
  </g>
  <line class="st3" x1="409.11" y1="260.24" x2="409.11" y2="278.94"/>
  <line class="st0" x1="327.11" y1="278.98" x2="327.11" y2="299.68"/>
  <line class="st3" x1="243.86" y1="204.03" x2="243.86" y2="220.68"/>
  <g class="st10">
    <path class="st3" d="M185.86,282.93s-.15,7.02.14,15.12"/>
  </g>
  <rect class="st5" x="188.84" y="136.14" width="22.76" height="48.54"/>
  <g class="st11">
    <path class="st19" d="M233.11,149.68c.5,2,12-21,21-24.5s22-6.5,29.5-5.5,2.63,6,.07,6.5c-2.57.5-9.07,3.5-5.07,3.5s4.51-1,9.5-1.5c5-.5,8.54-2.81,9.5,1,.5,2,.8,3.52.8,3.52,0,0,6.8,2.98,0,8.48,0,0,7.9,4.8.7,8.5l-9.5.62s11,8.75.5,8.75-26-3.88-26-3.88l-10.5,16-20.99-17,.49-4.5Z"/>
    <path class="st3" d="M233.11,149.68c.5,2,12-21,21-24.5s22-6.5,29.5-5.5,2.63,6,.07,6.5c-2.57.5-9.07,3.5-5.07,3.5s4.51-1,9.5-1.5c5-.5,8.54-2.81,9.5,1,.5,2,.8,3.52.8,3.52,0,0,6.8,2.98,0,8.48,0,0,7.9,4.8.7,8.5l-9.5.62s11,8.75.5,8.75-26-3.88-26-3.88l-10.5,16-20.99-17,.49-4.5Z"/>
    <path class="st2" d="M268.21,138.68s-.1-2.97,3.4-5.98c3.5-3.02,7-3.52,7-3.52"/>
    <path class="st2" d="M278.68,134.93s10.68,1.24,13.93,0c3.25-1.24,5-2.23,5-2.23"/>
  </g>
  <line class="st2" x1="280.61" y1="141.55" x2="297.85" y2="141.18"/>
  <line class="st4" x1="278.68" y1="149.68" x2="289.91" y2="150.18"/>
  <g class="st17">
    <path class="st6" d="M491.48,323.51l3.73,61.32,111.9-.15s-10-23.69-12-35.5c-2-11.81-9-38.69-10-47.34-1-8.66-10-30.11-10-30.11,0,0-10-36.79-31-21.52-21,15.28-52.62,73.31-52.62,73.31"/>
    <path class="st0" d="M491.48,323.51l3.73,61.32,111.9-.15s-10-23.69-12-35.5c-2-11.81-9-38.69-10-47.34-1-8.66-10-30.11-10-30.11,0,0-10-36.79-31-21.52-21,15.28-52.62,73.31-52.62,73.31Z"/>
    <path class="st19" d="M292.61,220.68s36.5.5,42.5,3,15.5,5,15.5,5c0,0,26.1-8.88,33.1-4.39,0,0-1.1-3.61,4.9-3.61s16.5-.5,29.5-3,34.6-5.62,34.6-5.62c0,0,23.9-38.38,32.65-43.88s36.05-29,44.15-29c0,0,18.45,9.86,32.81,35.45,10.9,19.43,19.45,47.92,15.79,88.05,0,0,.5,18-4,10.5s-5.2-12.93-8.6-12.93-4.9,9.22-11.9,16.43-62.12,49-62.12,49c0,0-4.67,4.3-6.12.4-1.45-3.9-2.25-5.4-8.75-2.4s-5.5,3.03-13.5,7-24.61,7.69-29.04,6.69c-4.43-1-4.89-4.19-1.46-5.19s-12.5,4-10-2.5l1.3-3.5s-7.8,2.5-7.8-1.5,2-4,3.5-4.5-5.6-.9-5.3-4.2c.3-3.3,21.73-13.8,21.73-13.8l8.07-2.5s11.5-10.35,13-10.35,21.5-16.55,21.5-16.55c0,0-2.5-5.67-3-9.1s2.5-8.4-9.5-7.7-64.5,4.27-64.5,4.27c0,0-11,3.01-12.7-1.79,0,0-10.3-.65-16.8,1.79-6.5,2.43-9.7,1.93-10.6,3.93s-.4,3.83-1.9,6.42-1.77,2.58-5.3,2.58c-1.4,0-2.4,2-2.4,2l-8.3,1s-1,2.8-4.5,2.8-4.55-1.97-7.77,0c-3.23,1.97-7.73,3.3-8.23,0s-6.5.2-5-7.3c0,0-9,2.43-6.5-4.5,0,0-8.5-2.67-4.5-6.93,0,0-9.44-1.57-4.47-8.07l-13.4,1.4,3.38-32.9Z"/>
    <path class="st3" d="M292.61,220.68s36.5.5,42.5,3,15.5,5,15.5,5c0,0,26.1-8.88,33.1-4.39,0,0-1.1-3.61,4.9-3.61s16.5-.5,29.5-3,34.6-5.62,34.6-5.62c0,0,23.9-38.38,32.65-43.88s36.05-29,44.15-29c0,0,18.45,9.86,32.81,35.45,10.9,19.43,19.45,47.92,15.79,88.05,0,0,.5,18-4,10.5s-5.2-12.93-8.6-12.93-4.9,9.22-11.9,16.43-62.12,49-62.12,49c0,0-4.67,4.3-6.12.4-1.45-3.9-2.25-5.4-8.75-2.4s-5.5,3.03-13.5,7-24.61,7.69-29.04,6.69c-4.43-1-4.89-4.19-1.46-5.19s-12.5,4-10-2.5l1.3-3.5s-7.8,2.5-7.8-1.5,2-4,3.5-4.5-5.6-.9-5.3-4.2c.3-3.3,21.73-13.8,21.73-13.8l8.07-2.5s11.5-10.35,13-10.35,21.5-16.55,21.5-16.55c0,0-2.5-5.67-3-9.1s2.5-8.4-9.5-7.7-64.5,4.27-64.5,4.27c0,0-11,3.01-12.7-1.79,0,0-10.3-.65-16.8,1.79-6.5,2.43-9.7,1.93-10.6,3.93s-.4,3.83-1.9,6.42-1.77,2.58-5.3,2.58c-1.4,0-2.4,2-2.4,2l-8.3,1s-1,2.8-4.5,2.8-4.55-1.97-7.77,0c-3.23,1.97-7.73,3.3-8.23,0s-6.5.2-5-7.3c0,0-9,2.43-6.5-4.5,0,0-8.5-2.67-4.5-6.93,0,0-9.44-1.57-4.47-8.07l-13.4,1.4,3.38-32.9Z"/>
    <path class="st3" d="M302.63,252.18s8.56-6.82,11.59-6.82c2.36,0,7.6,2.72,7.25,4.55-.1.51-.66.96-1.87,1.27-5.5,1.39-12.5,9.07-12.5,9.07"/>
    <path class="st3" d="M311.11,267.57l12.32-9.12s.13-.3.3-.79c.58-1.72.26-6.2-3.02-6.98"/>
    <path class="st3" d="M318.15,271.72l10.45-4.15s6.92-9.12-3.79-9.12l-1.39.43"/>
    <path class="st3" d="M322.71,278.18l9.9-6.13s3.67-6.07-2.7-6.07"/>
  </g>
  <line class="st3" x1="332.61" y1="278.98" x2="332.61" y2="271.72"/>
  <g class="st14">
    <path class="st4" d="M562.11,175.18v48.5c0,11.5,4.5,29.08.5,38"/>
  </g>
  <polyline class="st2" points="510.31 175.18 512.11 247.68 478.11 273.18"/>
  <line class="st2" x1="472.61" y1="200.18" x2="472.61" y2="256.68"/>
  <line class="st3" x1="383.61" y1="224.37" x2="389.11" y2="258.38"/>
  <g class="st13">
    <path class="st3" d="M349.51,228.43c-1.4,0-20.35,7.74-22.9,9.6-4.62,3.35-7.2,6.96,2,5.15,9.2-1.8,20.5-2.5,22.5,5.5s9.85,16.39,9.85,16.39"/>
    <path class="st2" d="M365.61,243.98s2.01,2.25-4.65,2.25-10.35.5-10.35.5"/>
  </g>
  <line class="st2" x1="419.71" y1="320.18" x2="436.11" y2="312.68"/>
  <line class="st2" x1="424.31" y1="325.78" x2="441.61" y2="318.15"/>
  <polyline class="st2" points="432.91 331.98 446.61 325.14 451.61 303.68"/>
  <line class="st3" x1="484.8" y1="323.51" x2="455.87" y2="289.33"/>
  <g class="st16">
    <path class="st7" d="M183.23,382.87l18.97-85.79s1.51-12.88,16.51-13.62,118.5-.5,118.5-.5c0,0,8.28-.04,6.5,14.12-1.92,15.27-23,87.62-23,87.62,0,0-.86,14.25-25,13.5-24.14-.75-185,.53-185,.53,0,0-7.22.22-4.5-8.03,2.71-8.25,7.5-6.75,9-8.25l68.02.42Z"/>
    <path class="st0" d="M657.47,94.68h-108.05l16.69-16.25V28.68s-.6-12.5,16.5-11.5c20.19,1.18,74.86-.5,74.86-.5,0,0,11.39,0,12.14,12.75s.5,51.75.5,51.75c0,0,.54,14-12.64,13.5Z"/>
  </g>
  <rect class="st0" x="583.86" y="35.93" width="67.92" height="47.54"/>
  <polyline class="st0" points="584.36 41.18 611.86 60.26 623.04 60.68 652.27 40.76"/>
  <rect class="st6" x="612.36" y="56.18" width="11.19" height="8.16"/>
  <g class="st15">
    <path class="st0" d="M600.61,35.43v-8.25s.53-4.33,4.83-4h22s3.67.67,3.67,3.67.5,8.58.5,8.58"/>
    <path class="st19" d="M165.86,96.72s-7.79,6.46-8.19,13.46c-.32,5.6,3.53,6.65,3.53,8.82s-10.59,15.43-10.59,15.43c0,0,18,.5,20.5,7.62s4.5,9.67,5.5,3.39c1-6.27,4.5-13.25,4.5-13.25l-6.5-31.02-8.75-4.46Z"/>
    <path class="st3" d="M165.86,96.72s-7.79,6.46-8.19,13.46c-.32,5.6,3.53,6.65,3.53,8.82s-10.59,15.43-10.59,15.43c0,0,18,.5,20.5,7.62s4.5,9.67,5.5,3.39c1-6.27,4.5-13.25,4.5-13.25l-6.5-31.02-8.75-4.46Z"/>
    <path class="st19" d="M200.23,112.18s1.35,25.17-19.62,23.96c0,0-7.5-3.2-7.5-7.46s-4.5-13.5-4.5-13.5l8.5-18.46,17.5-5.54,5.62,16.5v4.5Z"/>
    <path class="st3" d="M200.23,112.18s1.35,25.17-19.62,23.96c0,0-7.5-3.2-7.5-7.46s-4.5-13.5-4.5-13.5l8.5-18.46,17.5-5.54,5.62,16.5v4.5Z"/>
    <path class="st7" d="M166.86,118.98s9.75-.8,11.25-8.8-.74-11.5,5-12,9.5-8.5,10.5-.5c1,8,3,12.5,3,12.5,0,0,.5.41,1.24.96,2.63,1.95,8.31,5.67,5.71-.96-3.33-8.5-5.05-8.5,0-10s13.94-6.83,11.55-17.5c-3.5-15.62-24.47-4.24-24.47-4.24,0,0-4.53,5.06-8.03,1.75-3.5-3.31-11.08-6-15.79.5-4.71,6.5-9.21,12.83-6.21,17.16,3,4.34,11-.66,10.5,5.84,2,6.5-11.97,15.8-4.25,15.3"/>
    <path class="st7" d="M164.98,110.18c.76,0,1.38-.78,1.38-1.75s-.62-1.75-1.38-1.75-1.38.78-1.38,1.75.62,1.75,1.38,1.75"/>
    <path class="st6" d="M200.86,264.93s-.75,21.93-25.5,17.99c-24.75-3.94-78.5-7.12-94-38.99,0,0-1.07-22.5,11.96-48.75,13.04-26.25,45.44-69.88,67.11-60.75s43.42,49.5,43.42,49.5l28.5-34.25,30.75,25.25-30,45.75h62.25v42.75l-66.75,7.17s-27.75,0-27.75-5.67"/>
    <path class="st0" d="M200.86,264.93s-.75,21.93-25.5,17.99c-24.75-3.94-78.5-7.12-94-38.99,0,0-1.07-22.5,11.96-48.75,13.04-26.25,45.44-69.88,67.11-60.75s43.42,49.5,43.42,49.5l28.5-34.25,30.75,25.25-30,45.75h62.25v42.75l-66.75,7.17s-27.75,0-27.75-5.67Z"/>
    <path class="st0" d="M138.61,183.93s41.14,72.75,62.14,81.75"/>
    <path class="st0" d="M203.11,183.68s24.75,37,30,37"/>
    <path class="st19" d="M509.61,149.93l-8-15.5h-5c-3,0-8-5.89-8.5-8.75s-2.75-13.24-2.75-13.24c0,0,6.4-13.76,9.25-13.76s18.5-3,18.5-.5,10.5,8.56,11,12,9,11.5,8.4,15c-.6,3.5-.6,14-.6,14l-19.78,14-2.52-3.25Z"/>
    <path class="st3" d="M509.61,149.93l-8-15.5h-5c-3,0-8-5.89-8.5-8.75s-2.75-13.24-2.75-13.24c0,0,6.4-13.76,9.25-13.76s18.5-3,18.5-.5,10.5,8.56,11,12,9,11.5,8.4,15c-.6,3.5-.6,14-.6,14l-19.78,14-2.52-3.25Z"/>
    <path class="st3" d="M519.61,125.27s-5.52-.11-6.5,3.4-1.87,6.09-12,5.75"/>
    <path class="st3" d="M516.11,119s3.51,2.79,3.51-.02"/>
    <path class="st7" d="M529.11,140.68l-9-15s7-3.5,4.5-9.5c0,0-6.5-3.21-9-.19,0,0-4.5-4.06-4.5-5.81s5.5-7.5-.5-5.5-13,2.67-18-.92c0,0-1.63-.58-1.63,2.92s-5.62,12.13-5.62,6.94-5.29-4.81-2.89-13.94c2.39-9.12,1.14-9,6.64-11.5s4.5-4.21,11.5-4.21,17,1.95,17.5,6.58c.5,4.64,0,3.11,4.5,4.64s9.3,2.99,9.3,8.99v9.44s1.7,1.53,7.2,5.37,3.07,8.73.29,13.21c-2.79,4.49-7.49,9.86-10.29,8.48"/>
    <polygon class="st3" points="469.75 408.18 491.02 408.18 583.36 408.18 542.91 435.18 422.11 435.59 469.75 408.18"/>
  </g>
  <polyline class="st3" points="482.11 408.68 495.61 401.68 517.78 402.18 616.1 402.18 570.11 428.18 553.11 428.61"/>
  <polyline class="st3" points="515.61 401.18 523.11 396.18 643.61 395.68 595.44 423.71 577.47 424.13"/>
  <g class="st8">
    <polyline class="st3" points="77.39 299.18 -.15 299.18 -.15 .18 484.35 .18 484.35 92.43 484.85 123.18 484.85 168.43"/>
    <path class="st3" d="M185.99,298.05c-1.64,24.63,5.92,32.02,8.86,33.63"/>
    <path class="st0" d="M519.62,307.89s6.06,22.35,9.74,35.44,9.75,42,9.75,42"/>
    <path class="st18" d="M254.03,349.19c1.62,0,2.93-1.31,2.93-2.93s-1.31-2.93-2.93-2.93-2.93,1.31-2.93,2.93,1.31,2.93,2.93,2.93"/>
    <path class="st0" d="M254.03,349.19c1.62,0,2.93-1.31,2.93-2.93s-1.31-2.93-2.93-2.93-2.93,1.31-2.93,2.93,1.31,2.93,2.93,2.93Z"/>
  </g>
</svg>