<svg id="Layer_1" data-name="Layer 1" xmlns="http://www.w3.org/2000/svg" xmlns:xlink="http://www.w3.org/1999/xlink" viewBox="0 0 63.5 49.6"><defs><style>.cls-1,.cls-3,.cls-4{fill:none;}.cls-2{clip-path:url(#clip-path);}.cls-3,.cls-4{stroke:#004161;}.cls-3{stroke-linecap:round;}</style><clipPath id="clip-path" transform="translate(-0.2 -0.2)"><rect class="cls-1" width="63.83" height="50"/></clipPath></defs><g class="cls-2"><path class="cls-3" d="M.7.7S6.56,7.19,6.89,7.21s12.4,21.17,9,42.09" transform="translate(-0.2 -0.2)"/><path class="cls-4" d="M7.55,7.31s13.14-1.15,15.32,0,3.29,6,13.14,5c4.48-.43,10.94,1,13.13,3.84a17,17,0,0,0,8.75,5.76,47.05,47.05,0,0,1,5.48,1.94s-1.1-1-2.19,3.82,0,7.2,0,9.12S62.27,43.49,59,43a54.22,54.22,0,0,0-8.76-1c-3.28,0-4.37,1-3.28-1s1.09-1.91-4.38-1-6.94,1.92-6.94.48-2.36-4.79-5.1-3.83S17.3,43.53,17.3,43.53,15.21,17.1,7.55,7.31Z" transform="translate(-0.2 -0.2)"/></g></svg>