<svg id="Layer_1" data-name="Layer 1" xmlns="http://www.w3.org/2000/svg" xmlns:xlink="http://www.w3.org/1999/xlink" viewBox="0 0 63.51 49.6"><defs><style>.cls-1,.cls-3,.cls-4{fill:none;}.cls-2{clip-path:url(#clip-path);}.cls-3,.cls-4{stroke:#fff;}.cls-3{stroke-linecap:round;}</style><clipPath id="clip-path" transform="translate(0 0)"><rect class="cls-1" x="-0.2" y="-0.2" width="63.83" height="50"/></clipPath></defs><g class="cls-2"><path class="cls-3" d="M.5.5S6.36,7,6.69,7s12.4,21.17,9,42.09" transform="translate(0 0)"/><path class="cls-4" d="M7.35,7.11S20.49,6,22.67,7.11s3.29,6,13.14,5c4.48-.43,10.94,1,13.13,3.84a17,17,0,0,0,8.75,5.76,46.3,46.3,0,0,1,5.48,1.94s-1.1-1-2.19,3.82,0,7.2,0,9.12,1.09,6.7-2.18,6.21a53.79,53.79,0,0,0-8.76-1c-3.28,0-4.37,1-3.28-1s1.09-1.91-4.38-1-6.94,1.92-6.94.48-2.36-4.79-5.1-3.83S17.1,43.33,17.1,43.33,15,16.9,7.35,7.11Z" transform="translate(0 0)"/></g></svg>